<svg version="1.2" baseProfile="tiny" width="16.03mm" height="10.08mm" viewBox="10112 7192 1603 1008" preserveAspectRatio="xMidYMid" fill-rule="evenodd" stroke-width="28.222" stroke-linejoin="round" xmlns="http://www.w3.org/2000/svg" xmlns:xlink="http://www.w3.org/1999/xlink" xml:space="preserve">

 <g visibility="visible" id="Slide_1">
  <g id="DrawingGroup_1">
   <g>
    <path fill="rgb(204,255,153)" stroke="none" d="M 10138,8174 L 11690,8174 11690,7217 10138,7217 10138,8174 Z"/>
   </g>
   <g>
    <path fill="rgb(255,255,128)" stroke="none" d="M 11242,7873 L 11242,7457 10586,7457 11242,7873 Z"/>
    <path fill="none" stroke="rgb(255,255,128)" id="Drawing_2_0" stroke-linejoin="round" d="M 11242,7873 L 11242,7457 10586,7457 11242,7873 Z"/>
   </g>
   <g>
    <path fill="rgb(255,255,128)" stroke="none" d="M 11242,7873 L 10586,7457 10586,7873 11242,7873 Z"/>
    <path fill="none" stroke="rgb(255,255,128)" id="Drawing_3_0" stroke-linejoin="round" d="M 11242,7873 L 10586,7457 10586,7873 11242,7873 Z"/>
   </g>
   <g>
    <path fill="none" stroke="rgb(15,15,15)" id="Drawing_4_0" stroke-linejoin="round" d="M 10586,7873 L 11242,7873 11242,7457 10586,7457 10586,7873 Z"/>
   </g>
   <g>
    <path fill="rgb(255,255,128)" stroke="none" d="M 10914,7665 L 10603,7457 11225,7457 10914,7665 Z"/>
    <path fill="none" stroke="rgb(255,255,128)" id="Drawing_5_0" stroke-linejoin="round" d="M 10914,7665 L 10603,7457 11225,7457 10914,7665 Z"/>
   </g>
   <g>
    <path fill="none" stroke="rgb(15,15,15)" id="Drawing_6_0" stroke-linejoin="round" d="M 11225,7457 L 10914,7665 10603,7457 11225,7457 Z"/>
   </g>
  </g>
 </g>
</svg>
