<?xml version="1.0" encoding="UTF-8"?>

<svg version="1.2" baseProfile="tiny" width="18.57mm" height="10.05mm" viewBox="9919 9865 1857 1005" preserveAspectRatio="xMidYMid" fill-rule="evenodd" stroke-width="28.222" stroke-linejoin="round" xmlns="http://www.w3.org/2000/svg" xmlns:xlink="http://www.w3.org/1999/xlink" xml:space="preserve">

 <g visibility="visible" id="Slide_1">
  <g id="DrawingGroup_1">
   <g>
    <path fill="rgb(204,255,153)" stroke="none" d="M 10196,10844 L 11750,10844 11750,9890 10196,9890 10196,10844 Z"/>
    </g>
   <g>
    <path fill="none" stroke="rgb(141,141,141)" id="Drawing_2_0" stroke-linejoin="round" d="M 9919,10367 L 10673,10367"/>
   </g>
   <g>
    <path fill="rgb(141,141,141)" stroke="none" d="M 10556,10458 L 10556,10277 10735,10367 10556,10458 Z"/>
    <path fill="none" stroke="rgb(141,141,141)" id="Drawing_3_0" stroke-linejoin="round" d="M 10556,10458 L 10556,10277 10735,10367 10556,10458 Z"/>
   </g>
   <g>
    <path fill="none" stroke="rgb(141,141,141)" id="Drawing_4_0" stroke-linejoin="round" d="M 10735,10367 L 10556,10458 10556,10277 10735,10367 Z"/>
   </g>
   <g>
    <path fill="rgb(15,15,15)" stroke="none" d="M 11451,10043 L 11367,9959 11281,10043 11451,10043 Z"/>
    <path fill="none" stroke="rgb(15,15,15)" id="Drawing_5_0" stroke-linejoin="round" d="M 11451,10043 L 11367,9959 11281,10043 11451,10043 Z"/>
   </g>
   <g>
    <path fill="rgb(15,15,15)" stroke="none" d="M 11451,10044 L 11281,10044 11367,10128 11451,10044 Z"/>
    <path fill="none" stroke="rgb(15,15,15)" id="Drawing_6_0" stroke-linejoin="round" d="M 11451,10044 L 11281,10044 11367,10128 11451,10044 Z"/>
   </g>
   <g>
    <path fill="none" stroke="rgb(15,15,15)" id="Drawing_7_0" stroke-linejoin="round" d="M 11367,10127 L 11451,10043 11367,9959 11281,10043 11367,10127 Z"/>
   </g>
   <g>
    <path fill="rgb(15,15,15)" stroke="none" d="M 11655,10367 L 11571,10283 11485,10367 11655,10367 Z"/>
    <path fill="none" stroke="rgb(15,15,15)" id="Drawing_8_0" stroke-linejoin="round" d="M 11655,10367 L 11571,10283 11485,10367 11655,10367 Z"/>
   </g>
   <g>
    <path fill="rgb(15,15,15)" stroke="none" d="M 11655,10367 L 11485,10367 11571,10451 11655,10367 Z"/>
    <path fill="none" stroke="rgb(15,15,15)" id="Drawing_9_0" stroke-linejoin="round" d="M 11655,10367 L 11485,10367 11571,10451 11655,10367 Z"/>
   </g>
   <g>
    <path fill="none" stroke="rgb(15,15,15)" id="Drawing_10_0" stroke-linejoin="round" d="M 11571,10451 L 11655,10367 11571,10283 11485,10367 11571,10451 Z"/>
   </g>
   <g>
    <path fill="rgb(15,15,15)" stroke="none" d="M 11451,10691 L 11367,10607 11281,10691 11451,10691 Z"/>
    <path fill="none" stroke="rgb(15,15,15)" id="Drawing_11_0" stroke-linejoin="round" d="M 11451,10691 L 11367,10607 11281,10691 11451,10691 Z"/>
   </g>
   <g>
    <path fill="rgb(15,15,15)" stroke="none" d="M 11451,10691 L 11281,10691 11367,10775 11451,10691 Z"/>
    <path fill="none" stroke="rgb(15,15,15)" id="Drawing_12_0" stroke-linejoin="round" d="M 11451,10691 L 11281,10691 11367,10775 11451,10691 Z"/>
   </g>
   <g>
    <path fill="none" stroke="rgb(15,15,15)" id="Drawing_13_0" stroke-linejoin="round" d="M 11367,10775 L 11451,10691 11367,10607 11281,10691 11367,10775 Z"/>
   </g>
   <g>
    <path fill="none" stroke="rgb(15,15,15)" id="Drawing_14_0" stroke-linejoin="round" d="M 11412,10004 L 10859,10288"/>
   </g>
   <g>
    <path fill="none" stroke="rgb(15,15,15)" id="Drawing_15_0" stroke-linejoin="round" d="M 11655,10367 L 10913,10367"/>
   </g>
   <g>
    <path fill="none" stroke="rgb(15,15,15)" id="Drawing_16_0" stroke-linejoin="round" d="M 11405,10736 L 10869,10437"/>
   </g>
   <g>
    <path fill="rgb(15,15,15)" stroke="none" d="M 11390,10411 L 11390,10323 11480,10367 11390,10411 Z"/>
    <path fill="none" stroke="rgb(15,15,15)" id="Drawing_17_0" stroke-linejoin="round" d="M 11390,10411 L 11390,10323 11480,10367 11390,10411 Z"/>
   </g>
   <g>
    <path fill="none" stroke="rgb(15,15,15)" id="Drawing_18_0" stroke-linejoin="round" d="M 11480,10367 L 11390,10411 11390,10323 11480,10367 Z"/>
   </g>
   <g>
    <path fill="rgb(15,15,15)" stroke="none" d="M 11187,10064 L 11233,10142 11288,10058 11187,10064 Z"/>
    <path fill="none" stroke="rgb(15,15,15)" id="Drawing_19_0" stroke-linejoin="round" d="M 11187,10064 L 11233,10142 11288,10058 11187,10064 Z"/>
   </g>
   <g>
    <path fill="none" stroke="rgb(15,15,15)" id="Drawing_20_0" stroke-linejoin="round" d="M 11288,10058 L 11187,10064 11233,10142 11288,10058 Z"/>
   </g>
   <g>
    <path fill="rgb(15,15,15)" stroke="none" d="M 11176,10660 L 11222,10582 11277,10666 11176,10660 Z"/>
    <path fill="none" stroke="rgb(15,15,15)" id="Drawing_21_0" stroke-linejoin="round" d="M 11176,10660 L 11222,10582 11277,10666 11176,10660 Z"/>
   </g>
   <g>
    <path fill="none" stroke="rgb(15,15,15)" id="Drawing_22_0" stroke-linejoin="round" d="M 11277,10666 L 11176,10660 11222,10582 11277,10666 Z"/>
   </g>
   <g>
    <path fill="rgb(15,15,15)" stroke="none" d="M 10938,10367 L 10854,10283 10768,10367 10938,10367 Z"/>
    <path fill="none" stroke="rgb(15,15,15)" id="Drawing_23_0" stroke-linejoin="round" d="M 10938,10367 L 10854,10283 10768,10367 10938,10367 Z"/>
   </g>
   <g>
    <path fill="rgb(15,15,15)" stroke="none" d="M 10938,10367 L 10768,10367 10854,10451 10938,10367 Z"/>
    <path fill="none" stroke="rgb(15,15,15)" id="Drawing_24_0" stroke-linejoin="round" d="M 10938,10367 L 10768,10367 10854,10451 10938,10367 Z"/>
   </g>
   <g>
    <path fill="none" stroke="rgb(15,15,15)" id="Drawing_25_0" stroke-linejoin="round" d="M 10854,10451 L 10938,10367 10854,10283 10768,10367 10854,10451 Z"/>
   </g>
  </g>
 </g>
</svg>
