<?xml version="1.0" encoding="UTF-8"?>

<svg version="1.2" baseProfile="tiny" width="18.74mm" height="10.05mm" viewBox="1385 15581 1874 1005" preserveAspectRatio="xMidYMid" fill-rule="evenodd" stroke-width="28.222" stroke-linejoin="round" xmlns="http://www.w3.org/2000/svg" xmlns:xlink="http://www.w3.org/1999/xlink" xml:space="preserve">

 <g visibility="visible" id="Slide_1">
  <g id="DrawingGroup_1">
   <g>
    <path fill="rgb(204,255,153)" stroke="none" d="M 1681,16560 L 3233,16560 3233,15606 1681,15606 1681,16560 Z"/>
   </g>
   <g>
    <path fill="rgb(187,225,227)" stroke="none" d="M 2577,16472 L 2308,16338 2308,15800 2577,15665 2577,16472 Z"/>
    <path fill="none" stroke="rgb(15,15,15)" id="Drawing_2_0" stroke-linejoin="round" d="M 2577,16472 L 2308,16338 2308,15800 2577,15665 2577,16472 Z"/>
   </g>
   <g>
    <path fill="rgb(187,225,227)" stroke="none" d="M 2996,16502 L 2636,16502 2636,15665 2996,15665 2996,16502 Z"/>
    <path fill="none" stroke="rgb(15,15,15)" id="Drawing_3_0" stroke-linejoin="round" d="M 2996,16502 L 2636,16502 2636,15665 2996,15665 2996,16502 Z"/>
   </g>
   <g>
    <path fill="none" stroke="rgb(141,141,141)" id="Drawing_4_0" stroke-linejoin="round" d="M 1385,16083 L 2158,16083"/>
   </g>
   <g>
    <path fill="rgb(141,141,141)" stroke="none" d="M 2039,16174 L 2039,15993 2218,16083 2039,16174 Z"/>
    <path fill="none" stroke="rgb(141,141,141)" id="Drawing_5_0" stroke-linejoin="round" d="M 2039,16174 L 2039,15993 2218,16083 2039,16174 Z"/>
   </g>
   <g>
    <path fill="none" stroke="rgb(141,141,141)" id="Drawing_6_0" stroke-linejoin="round" d="M 2218,16083 L 2039,16174 2039,15993 2218,16083 Z"/>
   </g>
  </g>
 </g>
</svg>
