<?xml version="1.0" encoding="UTF-8"?>

<svg version="1.2" baseProfile="tiny" width="18.6mm" height="10.05mm" viewBox="7084 15583 1860 1005" preserveAspectRatio="xMidYMid" fill-rule="evenodd" stroke-width="28.222" stroke-linejoin="round" xmlns="http://www.w3.org/2000/svg" xmlns:xlink="http://www.w3.org/1999/xlink" xml:space="preserve">

 <g visibility="visible" id="Slide_1">
  <g id="DrawingGroup_1">
   <g>
    <path fill="rgb(204,255,153)" stroke="none" d="M 7364,16562 L 8918,16562 8918,15608 7364,15608 7364,16562 Z"/>
   </g>
   <g>
    <path fill="none" stroke="rgb(0,0,0)" id="Drawing_2_0" stroke-width="25" stroke-linejoin="round" d="M 8164,15749 C 8353,15749 8498,15893 8498,16082 8498,16271 8353,16416 8164,16416 7975,16416 7831,16271 7831,16082 7831,15893 7975,15749 8164,15749 Z"/>
    <rect fill="none" stroke="none" x="7832" y="15750" width="668" height="668"/>
   </g>
   <g>
    <path fill="none" stroke="rgb(141,141,141)" id="Drawing_3_0" stroke-width="25" stroke-linejoin="round" d="M 7096,16085 L 7843,16085"/>
   </g>
   <g>
    <path fill="rgb(15,15,15)" stroke="none" d="M 8678,16085 L 8594,16001 8510,16085 8678,16085 Z"/>
    <path fill="none" stroke="rgb(15,15,15)" id="Drawing_4_0" stroke-linejoin="round" d="M 8678,16085 L 8594,16001 8510,16085 8678,16085 Z"/>
   </g>
   <g>
    <path fill="rgb(15,15,15)" stroke="none" d="M 8678,16085 L 8510,16085 8594,16169 8678,16085 Z"/>
    <path fill="none" stroke="rgb(15,15,15)" id="Drawing_5_0" stroke-linejoin="round" d="M 8678,16085 L 8510,16085 8594,16169 8678,16085 Z"/>
   </g>
   <g>
    <path fill="none" stroke="rgb(15,15,15)" id="Drawing_6_0" stroke-linejoin="round" d="M 8594,16169 L 8678,16085 8594,16001 8510,16085 8594,16169 Z"/>
   </g>
   <g>
    <path fill="rgb(204,255,153)" stroke="none" d="M 7824,15994 C 7867,15994 7901,16027 7901,16070 7901,16113 7867,16147 7824,16147 7781,16147 7748,16113 7748,16070 7748,16027 7781,15994 7824,15994 Z"/>
    <rect fill="none" stroke="none" x="7748" y="15994" width="155" height="154"/>
    <rect fill="none" stroke="none" x="7749" y="15995" width="154" height="154"/>
   </g>
   <g>
    <path fill="rgb(141,141,141)" stroke="none" d="M 7724,16174 L 7724,15995 7903,16085 7724,16174 Z"/>
    <path fill="none" stroke="rgb(141,141,141)" id="Drawing_8_0" stroke-linejoin="round" d="M 7724,16174 L 7724,15995 7903,16085 7724,16174 Z"/>
   </g>
   <g>
    <path fill="none" stroke="rgb(141,141,141)" id="Drawing_9_0" stroke-linejoin="round" d="M 7903,16085 L 7724,16174 7724,15995 7903,16085 Z"/>
   </g>
   <g>
    <path fill="rgb(15,15,15)" stroke="none" d="M 7820,15933 L 7898,15977 7814,16032 7820,15933 Z"/>
    <path fill="none" stroke="rgb(15,15,15)" id="Drawing_10_0" stroke-linejoin="round" d="M 7820,15933 L 7898,15977 7814,16032 7820,15933 Z"/>
   </g>
  </g>
 </g>
</svg>
