<?xml version="1.0" encoding="UTF-8"?>

<svg version="1.2" baseProfile="tiny" width="16.03mm" height="10.05mm" viewBox="15837 15583 1603 1005" preserveAspectRatio="xMidYMid" fill-rule="evenodd" stroke-width="28.222" stroke-linejoin="round" xmlns="http://www.w3.org/2000/svg" xmlns:xlink="http://www.w3.org/1999/xlink" xml:space="preserve">

 <g visibility="visible" id="Slide_1">
  <g id="DrawingGroup_1">
   <g>
    <path fill="rgb(204,255,153)" stroke="none" d="M 15862,16562 L 17414,16562 17414,15608 15862,15608 15862,16562 Z"/>
   </g>
   <g>
    <path fill="rgb(15,15,15)" stroke="none" d="M 16218,16102 L 16226,16119 16237,16134 16218,16102 Z"/>
    <path fill="none" stroke="rgb(15,15,15)" id="Drawing_2_0" stroke-linejoin="round" d="M 16218,16102 L 16226,16119 16237,16134 16218,16102 Z"/>
   </g>
   <g>
    <path fill="rgb(15,15,15)" stroke="none" d="M 16218,16102 L 16237,16134 16254,16144 16218,16102 Z"/>
    <path fill="none" stroke="rgb(15,15,15)" id="Drawing_3_0" stroke-linejoin="round" d="M 16218,16102 L 16237,16134 16254,16144 16218,16102 Z"/>
   </g>
   <g>
    <path fill="rgb(15,15,15)" stroke="none" d="M 16218,16102 L 16254,16144 16271,16148 16218,16102 Z"/>
    <path fill="none" stroke="rgb(15,15,15)" id="Drawing_4_0" stroke-linejoin="round" d="M 16218,16102 L 16254,16144 16271,16148 16218,16102 Z"/>
   </g>
   <g>
    <path fill="rgb(15,15,15)" stroke="none" d="M 16218,16102 L 16271,16148 16289,16148 16218,16102 Z"/>
    <path fill="none" stroke="rgb(15,15,15)" id="Drawing_5_0" stroke-linejoin="round" d="M 16218,16102 L 16271,16148 16289,16148 16218,16102 Z"/>
   </g>
   <g>
    <path fill="rgb(15,15,15)" stroke="none" d="M 16218,16102 L 16289,16148 16306,16144 16218,16102 Z"/>
    <path fill="none" stroke="rgb(15,15,15)" id="Drawing_6_0" stroke-linejoin="round" d="M 16218,16102 L 16289,16148 16306,16144 16218,16102 Z"/>
   </g>
   <g>
    <path fill="rgb(15,15,15)" stroke="none" d="M 16218,16102 L 16306,16144 16323,16134 16218,16102 Z"/>
    <path fill="none" stroke="rgb(15,15,15)" id="Drawing_7_0" stroke-linejoin="round" d="M 16218,16102 L 16306,16144 16323,16134 16218,16102 Z"/>
   </g>
   <g>
    <path fill="rgb(15,15,15)" stroke="none" d="M 16218,16102 L 16323,16134 16334,16119 16218,16102 Z"/>
    <path fill="none" stroke="rgb(15,15,15)" id="Drawing_8_0" stroke-linejoin="round" d="M 16218,16102 L 16323,16134 16334,16119 16218,16102 Z"/>
   </g>
   <g>
    <path fill="rgb(15,15,15)" stroke="none" d="M 16218,16102 L 16334,16119 16342,16102 16218,16102 Z"/>
    <path fill="none" stroke="rgb(15,15,15)" id="Drawing_9_0" stroke-linejoin="round" d="M 16218,16102 L 16334,16119 16342,16102 16218,16102 Z"/>
   </g>
   <g>
    <path fill="rgb(15,15,15)" stroke="none" d="M 16218,16102 L 16342,16102 16344,16085 16218,16102 Z"/>
    <path fill="none" stroke="rgb(15,15,15)" id="Drawing_10_0" stroke-linejoin="round" d="M 16218,16102 L 16342,16102 16344,16085 16218,16102 Z"/>
   </g>
   <g>
    <path fill="rgb(15,15,15)" stroke="none" d="M 16218,16102 L 16344,16085 16342,16066 16218,16102 Z"/>
    <path fill="none" stroke="rgb(15,15,15)" id="Drawing_11_0" stroke-linejoin="round" d="M 16218,16102 L 16344,16085 16342,16066 16218,16102 Z"/>
   </g>
   <g>
    <path fill="rgb(15,15,15)" stroke="none" d="M 16218,16103 L 16342,16067 16334,16050 16218,16103 Z"/>
    <path fill="none" stroke="rgb(15,15,15)" id="Drawing_12_0" stroke-linejoin="round" d="M 16218,16103 L 16342,16067 16334,16050 16218,16103 Z"/>
   </g>
   <g>
    <path fill="rgb(15,15,15)" stroke="none" d="M 16218,16102 L 16334,16050 16323,16037 16218,16102 Z"/>
    <path fill="none" stroke="rgb(15,15,15)" id="Drawing_13_0" stroke-linejoin="round" d="M 16218,16102 L 16334,16050 16323,16037 16218,16102 Z"/>
   </g>
   <g>
    <path fill="rgb(15,15,15)" stroke="none" d="M 16218,16102 L 16323,16037 16306,16026 16218,16102 Z"/>
    <path fill="none" stroke="rgb(15,15,15)" id="Drawing_14_0" stroke-linejoin="round" d="M 16218,16102 L 16323,16037 16306,16026 16218,16102 Z"/>
   </g>
   <g>
    <path fill="rgb(15,15,15)" stroke="none" d="M 16218,16102 L 16306,16026 16289,16020 16218,16102 Z"/>
    <path fill="none" stroke="rgb(15,15,15)" id="Drawing_15_0" stroke-linejoin="round" d="M 16218,16102 L 16306,16026 16289,16020 16218,16102 Z"/>
   </g>
   <g>
    <path fill="rgb(15,15,15)" stroke="none" d="M 16218,16102 L 16289,16020 16271,16020 16218,16102 Z"/>
    <path fill="none" stroke="rgb(15,15,15)" id="Drawing_16_0" stroke-linejoin="round" d="M 16218,16102 L 16289,16020 16271,16020 16218,16102 Z"/>
   </g>
   <g>
    <path fill="rgb(15,15,15)" stroke="none" d="M 16218,16102 L 16271,16020 16254,16026 16218,16102 Z"/>
    <path fill="none" stroke="rgb(15,15,15)" id="Drawing_17_0" stroke-linejoin="round" d="M 16218,16102 L 16271,16020 16254,16026 16218,16102 Z"/>
   </g>
   <g>
    <path fill="rgb(15,15,15)" stroke="none" d="M 16218,16102 L 16254,16026 16237,16037 16218,16102 Z"/>
    <path fill="none" stroke="rgb(15,15,15)" id="Drawing_18_0" stroke-linejoin="round" d="M 16218,16102 L 16254,16026 16237,16037 16218,16102 Z"/>
   </g>
   <g>
    <path fill="rgb(15,15,15)" stroke="none" d="M 16218,16102 L 16237,16037 16226,16050 16218,16102 Z"/>
    <path fill="none" stroke="rgb(15,15,15)" id="Drawing_19_0" stroke-linejoin="round" d="M 16218,16102 L 16237,16037 16226,16050 16218,16102 Z"/>
   </g>
   <g>
    <path fill="rgb(15,15,15)" stroke="none" d="M 16218,16103 L 16226,16050 16218,16067 16218,16103 Z"/>
    <path fill="none" stroke="rgb(15,15,15)" id="Drawing_20_0" stroke-linejoin="round" d="M 16218,16103 L 16226,16050 16218,16067 16218,16103 Z"/>
   </g>
   <g>
    <path fill="rgb(15,15,15)" stroke="none" d="M 16218,16102 L 16218,16066 16216,16085 16218,16102 Z"/>
    <path fill="none" stroke="rgb(15,15,15)" id="Drawing_21_0" stroke-linejoin="round" d="M 16218,16102 L 16218,16066 16216,16085 16218,16102 Z"/>
   </g>
   <g>
    <path fill="none" stroke="rgb(15,15,15)" id="Drawing_22_0" stroke-linejoin="round" d="M 15980,16085 L 16279,16085"/>
   </g>
   <g>
    <path fill="rgb(15,15,15)" stroke="none" d="M 17059,15767 L 17051,15751 17038,15738 17059,15767 Z"/>
    <path fill="none" stroke="rgb(15,15,15)" id="Drawing_23_0" stroke-linejoin="round" d="M 17059,15767 L 17051,15751 17038,15738 17059,15767 Z"/>
   </g>
   <g>
    <path fill="rgb(15,15,15)" stroke="none" d="M 17059,15768 L 17038,15739 17023,15728 17059,15768 Z"/>
    <path fill="none" stroke="rgb(15,15,15)" id="Drawing_24_0" stroke-linejoin="round" d="M 17059,15768 L 17038,15739 17023,15728 17059,15768 Z"/>
   </g>
   <g>
    <path fill="rgb(15,15,15)" stroke="none" d="M 17059,15768 L 17023,15728 17006,15722 17059,15768 Z"/>
    <path fill="none" stroke="rgb(15,15,15)" id="Drawing_25_0" stroke-linejoin="round" d="M 17059,15768 L 17023,15728 17006,15722 17059,15768 Z"/>
   </g>
   <g>
    <path fill="rgb(15,15,15)" stroke="none" d="M 17058,15768 L 17006,15722 16987,15722 17058,15768 Z"/>
    <path fill="none" stroke="rgb(15,15,15)" id="Drawing_26_0" stroke-linejoin="round" d="M 17058,15768 L 17006,15722 16987,15722 17058,15768 Z"/>
   </g>
   <g>
    <path fill="rgb(15,15,15)" stroke="none" d="M 17058,15768 L 16987,15722 16970,15728 17058,15768 Z"/>
    <path fill="none" stroke="rgb(15,15,15)" id="Drawing_27_0" stroke-linejoin="round" d="M 17058,15768 L 16987,15722 16970,15728 17058,15768 Z"/>
   </g>
   <g>
    <path fill="rgb(15,15,15)" stroke="none" d="M 17058,15768 L 16970,15728 16953,15739 17058,15768 Z"/>
    <path fill="none" stroke="rgb(15,15,15)" id="Drawing_28_0" stroke-linejoin="round" d="M 17058,15768 L 16970,15728 16953,15739 17058,15768 Z"/>
   </g>
   <g>
    <path fill="rgb(15,15,15)" stroke="none" d="M 17059,15767 L 16954,15738 16943,15751 17059,15767 Z"/>
    <path fill="none" stroke="rgb(15,15,15)" id="Drawing_29_0" stroke-linejoin="round" d="M 17059,15767 L 16954,15738 16943,15751 17059,15767 Z"/>
   </g>
   <g>
    <path fill="rgb(15,15,15)" stroke="none" d="M 17059,15768 L 16943,15751 16935,15768 17059,15768 Z"/>
    <path fill="none" stroke="rgb(15,15,15)" id="Drawing_30_0" stroke-linejoin="round" d="M 17059,15768 L 16943,15751 16935,15768 17059,15768 Z"/>
   </g>
   <g>
    <path fill="rgb(15,15,15)" stroke="none" d="M 17058,15768 L 16934,15768 16932,15787 17058,15768 Z"/>
    <path fill="none" stroke="rgb(15,15,15)" id="Drawing_31_0" stroke-linejoin="round" d="M 17058,15768 L 16934,15768 16932,15787 17058,15768 Z"/>
   </g>
   <g>
    <path fill="rgb(15,15,15)" stroke="none" d="M 17058,15768 L 16932,15787 16934,15804 17058,15768 Z"/>
    <path fill="none" stroke="rgb(15,15,15)" id="Drawing_32_0" stroke-linejoin="round" d="M 17058,15768 L 16932,15787 16934,15804 17058,15768 Z"/>
   </g>
   <g>
    <path fill="rgb(15,15,15)" stroke="none" d="M 17059,15768 L 16935,15804 16943,15821 17059,15768 Z"/>
    <path fill="none" stroke="rgb(15,15,15)" id="Drawing_33_0" stroke-linejoin="round" d="M 17059,15768 L 16935,15804 16943,15821 17059,15768 Z"/>
   </g>
   <g>
    <path fill="rgb(15,15,15)" stroke="none" d="M 17059,15768 L 16943,15821 16954,15835 17059,15768 Z"/>
    <path fill="none" stroke="rgb(15,15,15)" id="Drawing_34_0" stroke-linejoin="round" d="M 17059,15768 L 16943,15821 16954,15835 17059,15768 Z"/>
   </g>
   <g>
    <path fill="rgb(15,15,15)" stroke="none" d="M 17058,15768 L 16953,15835 16970,15846 17058,15768 Z"/>
    <path fill="none" stroke="rgb(15,15,15)" id="Drawing_35_0" stroke-linejoin="round" d="M 17058,15768 L 16953,15835 16970,15846 17058,15768 Z"/>
   </g>
   <g>
    <path fill="rgb(15,15,15)" stroke="none" d="M 17058,15768 L 16970,15846 16987,15850 17058,15768 Z"/>
    <path fill="none" stroke="rgb(15,15,15)" id="Drawing_36_0" stroke-linejoin="round" d="M 17058,15768 L 16970,15846 16987,15850 17058,15768 Z"/>
   </g>
   <g>
    <path fill="rgb(15,15,15)" stroke="none" d="M 17058,15768 L 16987,15850 17006,15850 17058,15768 Z"/>
    <path fill="none" stroke="rgb(15,15,15)" id="Drawing_37_0" stroke-linejoin="round" d="M 17058,15768 L 16987,15850 17006,15850 17058,15768 Z"/>
   </g>
   <g>
    <path fill="rgb(15,15,15)" stroke="none" d="M 17059,15768 L 17006,15850 17023,15846 17059,15768 Z"/>
    <path fill="none" stroke="rgb(15,15,15)" id="Drawing_38_0" stroke-linejoin="round" d="M 17059,15768 L 17006,15850 17023,15846 17059,15768 Z"/>
   </g>
   <g>
    <path fill="rgb(15,15,15)" stroke="none" d="M 17059,15768 L 17023,15846 17038,15835 17059,15768 Z"/>
    <path fill="none" stroke="rgb(15,15,15)" id="Drawing_39_0" stroke-linejoin="round" d="M 17059,15768 L 17023,15846 17038,15835 17059,15768 Z"/>
   </g>
   <g>
    <path fill="rgb(15,15,15)" stroke="none" d="M 17059,15768 L 17038,15835 17051,15821 17059,15768 Z"/>
    <path fill="none" stroke="rgb(15,15,15)" id="Drawing_40_0" stroke-linejoin="round" d="M 17059,15768 L 17038,15835 17051,15821 17059,15768 Z"/>
   </g>
   <g>
    <path fill="rgb(15,15,15)" stroke="none" d="M 17058,15768 L 17050,15821 17058,15804 17058,15768 Z"/>
    <path fill="none" stroke="rgb(15,15,15)" id="Drawing_41_0" stroke-linejoin="round" d="M 17058,15768 L 17050,15821 17058,15804 17058,15768 Z"/>
   </g>
   <g>
    <path fill="rgb(15,15,15)" stroke="none" d="M 17059,15768 L 17059,15804 17061,15787 17059,15768 Z"/>
    <path fill="none" stroke="rgb(15,15,15)" id="Drawing_42_0" stroke-linejoin="round" d="M 17059,15768 L 17059,15804 17061,15787 17059,15768 Z"/>
   </g>
   <g>
    <path fill="none" stroke="rgb(15,15,15)" id="Drawing_43_0" stroke-linejoin="round" d="M 16996,15787 L 17295,15787"/>
   </g>
   <g>
    <path fill="rgb(15,15,15)" stroke="none" d="M 17059,16066 L 17051,16050 17038,16037 17059,16066 Z"/>
    <path fill="none" stroke="rgb(15,15,15)" id="Drawing_44_0" stroke-linejoin="round" d="M 17059,16066 L 17051,16050 17038,16037 17059,16066 Z"/>
   </g>
   <g>
    <path fill="rgb(15,15,15)" stroke="none" d="M 17059,16066 L 17038,16037 17023,16026 17059,16066 Z"/>
    <path fill="none" stroke="rgb(15,15,15)" id="Drawing_45_0" stroke-linejoin="round" d="M 17059,16066 L 17038,16037 17023,16026 17059,16066 Z"/>
   </g>
   <g>
    <path fill="rgb(15,15,15)" stroke="none" d="M 17059,16066 L 17023,16026 17006,16020 17059,16066 Z"/>
    <path fill="none" stroke="rgb(15,15,15)" id="Drawing_46_0" stroke-linejoin="round" d="M 17059,16066 L 17023,16026 17006,16020 17059,16066 Z"/>
   </g>
   <g>
    <path fill="rgb(15,15,15)" stroke="none" d="M 17058,16066 L 17006,16020 16987,16020 17058,16066 Z"/>
    <path fill="none" stroke="rgb(15,15,15)" id="Drawing_47_0" stroke-linejoin="round" d="M 17058,16066 L 17006,16020 16987,16020 17058,16066 Z"/>
   </g>
   <g>
    <path fill="rgb(15,15,15)" stroke="none" d="M 17058,16066 L 16987,16020 16970,16026 17058,16066 Z"/>
    <path fill="none" stroke="rgb(15,15,15)" id="Drawing_48_0" stroke-linejoin="round" d="M 17058,16066 L 16987,16020 16970,16026 17058,16066 Z"/>
   </g>
   <g>
    <path fill="rgb(15,15,15)" stroke="none" d="M 17058,16066 L 16970,16026 16953,16037 17058,16066 Z"/>
    <path fill="none" stroke="rgb(15,15,15)" id="Drawing_49_0" stroke-linejoin="round" d="M 17058,16066 L 16970,16026 16953,16037 17058,16066 Z"/>
   </g>
   <g>
    <path fill="rgb(15,15,15)" stroke="none" d="M 17059,16066 L 16954,16037 16943,16050 17059,16066 Z"/>
    <path fill="none" stroke="rgb(15,15,15)" id="Drawing_50_0" stroke-linejoin="round" d="M 17059,16066 L 16954,16037 16943,16050 17059,16066 Z"/>
   </g>
   <g>
    <path fill="rgb(15,15,15)" stroke="none" d="M 17059,16067 L 16943,16050 16935,16067 17059,16067 Z"/>
    <path fill="none" stroke="rgb(15,15,15)" id="Drawing_51_0" stroke-linejoin="round" d="M 17059,16067 L 16943,16050 16935,16067 17059,16067 Z"/>
   </g>
   <g>
    <path fill="rgb(15,15,15)" stroke="none" d="M 17058,16066 L 16934,16066 16932,16085 17058,16066 Z"/>
    <path fill="none" stroke="rgb(15,15,15)" id="Drawing_52_0" stroke-linejoin="round" d="M 17058,16066 L 16934,16066 16932,16085 17058,16066 Z"/>
   </g>
   <g>
    <path fill="rgb(15,15,15)" stroke="none" d="M 17058,16066 L 16932,16085 16934,16102 17058,16066 Z"/>
    <path fill="none" stroke="rgb(15,15,15)" id="Drawing_53_0" stroke-linejoin="round" d="M 17058,16066 L 16932,16085 16934,16102 17058,16066 Z"/>
   </g>
   <g>
    <path fill="rgb(15,15,15)" stroke="none" d="M 17059,16066 L 16935,16102 16943,16119 17059,16066 Z"/>
    <path fill="none" stroke="rgb(15,15,15)" id="Drawing_54_0" stroke-linejoin="round" d="M 17059,16066 L 16935,16102 16943,16119 17059,16066 Z"/>
   </g>
   <g>
    <path fill="rgb(15,15,15)" stroke="none" d="M 17059,16066 L 16943,16119 16954,16133 17059,16066 Z"/>
    <path fill="none" stroke="rgb(15,15,15)" id="Drawing_55_0" stroke-linejoin="round" d="M 17059,16066 L 16943,16119 16954,16133 17059,16066 Z"/>
   </g>
   <g>
    <path fill="rgb(15,15,15)" stroke="none" d="M 17058,16066 L 16953,16133 16970,16144 17058,16066 Z"/>
    <path fill="none" stroke="rgb(15,15,15)" id="Drawing_56_0" stroke-linejoin="round" d="M 17058,16066 L 16953,16133 16970,16144 17058,16066 Z"/>
   </g>
   <g>
    <path fill="rgb(15,15,15)" stroke="none" d="M 17058,16066 L 16970,16144 16987,16148 17058,16066 Z"/>
    <path fill="none" stroke="rgb(15,15,15)" id="Drawing_57_0" stroke-linejoin="round" d="M 17058,16066 L 16970,16144 16987,16148 17058,16066 Z"/>
   </g>
   <g>
    <path fill="rgb(15,15,15)" stroke="none" d="M 17058,16066 L 16987,16148 17006,16148 17058,16066 Z"/>
    <path fill="none" stroke="rgb(15,15,15)" id="Drawing_58_0" stroke-linejoin="round" d="M 17058,16066 L 16987,16148 17006,16148 17058,16066 Z"/>
   </g>
   <g>
    <path fill="rgb(15,15,15)" stroke="none" d="M 17059,16066 L 17006,16148 17023,16144 17059,16066 Z"/>
    <path fill="none" stroke="rgb(15,15,15)" id="Drawing_59_0" stroke-linejoin="round" d="M 17059,16066 L 17006,16148 17023,16144 17059,16066 Z"/>
   </g>
   <g>
    <path fill="rgb(15,15,15)" stroke="none" d="M 17059,16066 L 17023,16144 17038,16133 17059,16066 Z"/>
    <path fill="none" stroke="rgb(15,15,15)" id="Drawing_60_0" stroke-linejoin="round" d="M 17059,16066 L 17023,16144 17038,16133 17059,16066 Z"/>
   </g>
   <g>
    <path fill="rgb(15,15,15)" stroke="none" d="M 17059,16066 L 17038,16133 17051,16119 17059,16066 Z"/>
    <path fill="none" stroke="rgb(15,15,15)" id="Drawing_61_0" stroke-linejoin="round" d="M 17059,16066 L 17038,16133 17051,16119 17059,16066 Z"/>
   </g>
   <g>
    <path fill="rgb(15,15,15)" stroke="none" d="M 17058,16066 L 17050,16119 17058,16102 17058,16066 Z"/>
    <path fill="none" stroke="rgb(15,15,15)" id="Drawing_62_0" stroke-linejoin="round" d="M 17058,16066 L 17050,16119 17058,16102 17058,16066 Z"/>
   </g>
   <g>
    <path fill="rgb(15,15,15)" stroke="none" d="M 17059,16066 L 17059,16102 17061,16085 17059,16066 Z"/>
    <path fill="none" stroke="rgb(15,15,15)" id="Drawing_63_0" stroke-linejoin="round" d="M 17059,16066 L 17059,16102 17061,16085 17059,16066 Z"/>
   </g>
   <g>
    <path fill="none" stroke="rgb(15,15,15)" id="Drawing_64_0" stroke-linejoin="round" d="M 16996,16085 L 17295,16085"/>
   </g>
   <g>
    <path fill="rgb(15,15,15)" stroke="none" d="M 17059,16364 L 17051,16348 17038,16335 17059,16364 Z"/>
    <path fill="none" stroke="rgb(15,15,15)" id="Drawing_65_0" stroke-linejoin="round" d="M 17059,16364 L 17051,16348 17038,16335 17059,16364 Z"/>
   </g>
   <g>
    <path fill="rgb(15,15,15)" stroke="none" d="M 17059,16365 L 17038,16336 17023,16325 17059,16365 Z"/>
    <path fill="none" stroke="rgb(15,15,15)" id="Drawing_66_0" stroke-linejoin="round" d="M 17059,16365 L 17038,16336 17023,16325 17059,16365 Z"/>
   </g>
   <g>
    <path fill="rgb(15,15,15)" stroke="none" d="M 17059,16365 L 17023,16325 17006,16319 17059,16365 Z"/>
    <path fill="none" stroke="rgb(15,15,15)" id="Drawing_67_0" stroke-linejoin="round" d="M 17059,16365 L 17023,16325 17006,16319 17059,16365 Z"/>
   </g>
   <g>
    <path fill="rgb(15,15,15)" stroke="none" d="M 17058,16365 L 17006,16319 16987,16319 17058,16365 Z"/>
    <path fill="none" stroke="rgb(15,15,15)" id="Drawing_68_0" stroke-linejoin="round" d="M 17058,16365 L 17006,16319 16987,16319 17058,16365 Z"/>
   </g>
   <g>
    <path fill="rgb(15,15,15)" stroke="none" d="M 17058,16365 L 16987,16319 16970,16325 17058,16365 Z"/>
    <path fill="none" stroke="rgb(15,15,15)" id="Drawing_69_0" stroke-linejoin="round" d="M 17058,16365 L 16987,16319 16970,16325 17058,16365 Z"/>
   </g>
   <g>
    <path fill="rgb(15,15,15)" stroke="none" d="M 17058,16365 L 16970,16325 16953,16336 17058,16365 Z"/>
    <path fill="none" stroke="rgb(15,15,15)" id="Drawing_70_0" stroke-linejoin="round" d="M 17058,16365 L 16970,16325 16953,16336 17058,16365 Z"/>
   </g>
   <g>
    <path fill="rgb(15,15,15)" stroke="none" d="M 17059,16364 L 16954,16335 16943,16348 17059,16364 Z"/>
    <path fill="none" stroke="rgb(15,15,15)" id="Drawing_71_0" stroke-linejoin="round" d="M 17059,16364 L 16954,16335 16943,16348 17059,16364 Z"/>
   </g>
   <g>
    <path fill="rgb(15,15,15)" stroke="none" d="M 17059,16365 L 16943,16348 16935,16365 17059,16365 Z"/>
    <path fill="none" stroke="rgb(15,15,15)" id="Drawing_72_0" stroke-linejoin="round" d="M 17059,16365 L 16943,16348 16935,16365 17059,16365 Z"/>
   </g>
   <g>
    <path fill="rgb(15,15,15)" stroke="none" d="M 17058,16365 L 16934,16365 16932,16384 17058,16365 Z"/>
    <path fill="none" stroke="rgb(15,15,15)" id="Drawing_73_0" stroke-linejoin="round" d="M 17058,16365 L 16934,16365 16932,16384 17058,16365 Z"/>
   </g>
   <g>
    <path fill="rgb(15,15,15)" stroke="none" d="M 17058,16365 L 16932,16384 16934,16403 17058,16365 Z"/>
    <path fill="none" stroke="rgb(15,15,15)" id="Drawing_74_0" stroke-linejoin="round" d="M 17058,16365 L 16932,16384 16934,16403 17058,16365 Z"/>
   </g>
   <g>
    <path fill="rgb(15,15,15)" stroke="none" d="M 17059,16365 L 16935,16403 16943,16418 17059,16365 Z"/>
    <path fill="none" stroke="rgb(15,15,15)" id="Drawing_75_0" stroke-linejoin="round" d="M 17059,16365 L 16935,16403 16943,16418 17059,16365 Z"/>
   </g>
   <g>
    <path fill="rgb(15,15,15)" stroke="none" d="M 17059,16365 L 16943,16418 16954,16432 17059,16365 Z"/>
    <path fill="none" stroke="rgb(15,15,15)" id="Drawing_76_0" stroke-linejoin="round" d="M 17059,16365 L 16943,16418 16954,16432 17059,16365 Z"/>
   </g>
   <g>
    <path fill="rgb(15,15,15)" stroke="none" d="M 17058,16365 L 16953,16432 16970,16443 17058,16365 Z"/>
    <path fill="none" stroke="rgb(15,15,15)" id="Drawing_77_0" stroke-linejoin="round" d="M 17058,16365 L 16953,16432 16970,16443 17058,16365 Z"/>
   </g>
   <g>
    <path fill="rgb(15,15,15)" stroke="none" d="M 17058,16365 L 16970,16443 16987,16447 17058,16365 Z"/>
    <path fill="none" stroke="rgb(15,15,15)" id="Drawing_78_0" stroke-linejoin="round" d="M 17058,16365 L 16970,16443 16987,16447 17058,16365 Z"/>
   </g>
   <g>
    <path fill="rgb(15,15,15)" stroke="none" d="M 17058,16365 L 16987,16447 17006,16447 17058,16365 Z"/>
    <path fill="none" stroke="rgb(15,15,15)" id="Drawing_79_0" stroke-linejoin="round" d="M 17058,16365 L 16987,16447 17006,16447 17058,16365 Z"/>
   </g>
   <g>
    <path fill="rgb(15,15,15)" stroke="none" d="M 17059,16365 L 17006,16447 17023,16443 17059,16365 Z"/>
    <path fill="none" stroke="rgb(15,15,15)" id="Drawing_80_0" stroke-linejoin="round" d="M 17059,16365 L 17006,16447 17023,16443 17059,16365 Z"/>
   </g>
   <g>
    <path fill="rgb(15,15,15)" stroke="none" d="M 17059,16365 L 17023,16443 17038,16432 17059,16365 Z"/>
    <path fill="none" stroke="rgb(15,15,15)" id="Drawing_81_0" stroke-linejoin="round" d="M 17059,16365 L 17023,16443 17038,16432 17059,16365 Z"/>
   </g>
   <g>
    <path fill="rgb(15,15,15)" stroke="none" d="M 17059,16365 L 17038,16432 17051,16418 17059,16365 Z"/>
    <path fill="none" stroke="rgb(15,15,15)" id="Drawing_82_0" stroke-linejoin="round" d="M 17059,16365 L 17038,16432 17051,16418 17059,16365 Z"/>
   </g>
   <g>
    <path fill="rgb(15,15,15)" stroke="none" d="M 17058,16365 L 17050,16418 17058,16403 17058,16365 Z"/>
    <path fill="none" stroke="rgb(15,15,15)" id="Drawing_83_0" stroke-linejoin="round" d="M 17058,16365 L 17050,16418 17058,16403 17058,16365 Z"/>
   </g>
   <g>
    <path fill="rgb(15,15,15)" stroke="none" d="M 17059,16365 L 17059,16403 17061,16384 17059,16365 Z"/>
    <path fill="none" stroke="rgb(15,15,15)" id="Drawing_84_0" stroke-linejoin="round" d="M 17059,16365 L 17059,16403 17061,16384 17059,16365 Z"/>
   </g>
   <g>
    <path fill="none" stroke="rgb(15,15,15)" id="Drawing_85_0" stroke-linejoin="round" d="M 16996,16384 L 17295,16384"/>
   </g>
   <g>
    <path fill="none" stroke="rgb(15,15,15)" id="Drawing_86_0" stroke-linejoin="round" d="M 16279,16086 L 16996,15787"/>
   </g>
   <g>
    <path fill="none" stroke="rgb(15,15,15)" id="Drawing_87_0" stroke-linejoin="round" d="M 16996,16384 L 16279,16085 16996,16085"/>
   </g>
  </g>
 </g>
</svg>
