<?xml version="1.0" encoding="UTF-8"?>

<svg version="1.2" baseProfile="tiny" width="17.25mm" height="10.05mm" viewBox="1595 18312 1725 1005" preserveAspectRatio="xMidYMid" fill-rule="evenodd" stroke-width="28.222" stroke-linejoin="round" xmlns="http://www.w3.org/2000/svg" xmlns:xlink="http://www.w3.org/1999/xlink" xml:space="preserve">

 <g visibility="visible" id="Slide_1">
  <g id="DrawingGroup_1">
   <g>
    <path fill="rgb(204,255,153)" stroke="none" d="M 3295,19291 L 1621,19291 1621,18337 3295,18337 3295,19291 Z"/>
   </g>
   <g>
    <path fill="rgb(255,255,255)" stroke="none" d="M 2727,18903 L 2548,18903 2548,18724 2727,18724 2727,18903 Z"/>
    <path fill="none" stroke="rgb(15,15,15)" id="Drawing_2_0" stroke-linejoin="round" d="M 2727,18903 L 2548,18903 2548,18724 2727,18724 2727,18903 Z"/>
   </g>
   <g>
    <path fill="rgb(15,15,15)" stroke="none" d="M 2516,18814 L 2260,18900 2260,18728 2516,18814 Z"/>
    <path fill="none" stroke="rgb(15,15,15)" id="Drawing_3_0" stroke-linejoin="round" d="M 2516,18814 L 2260,18900 2260,18728 2516,18814 Z"/>
   </g>
   <g>
    <path fill="none" stroke="rgb(15,15,15)" id="Drawing_4_0" stroke-linejoin="round" d="M 2039,18815 L 2516,18815"/>
   </g>
   <g>
    <path fill="rgb(255,255,255)" stroke="none" d="M 1861,18844 L 1682,18844 1682,18665 1861,18665 1861,18844 Z"/>
    <path fill="none" stroke="rgb(15,15,15)" id="Drawing_5_0" stroke-linejoin="round" d="M 1861,18844 L 1682,18844 1682,18665 1861,18665 1861,18844 Z"/>
   </g>
   <g>
    <path fill="rgb(255,255,255)" stroke="none" d="M 2100,18695 L 1919,18695 1919,18516 2100,18516 2100,18695 Z"/>
    <path fill="none" stroke="rgb(15,15,15)" id="Drawing_6_0" stroke-linejoin="round" d="M 2100,18695 L 1919,18695 1919,18516 2100,18516 2100,18695 Z"/>
   </g>
   <g>
    <path fill="rgb(255,255,255)" stroke="none" d="M 1980,19084 L 1801,19084 1801,18903 1980,18903 1980,19084 Z"/>
    <path fill="none" stroke="rgb(15,15,15)" id="Drawing_7_0" stroke-linejoin="round" d="M 1980,19084 L 1801,19084 1801,18903 1980,18903 1980,19084 Z"/>
   </g>
   <g>
    <path fill="rgb(255,255,255)" stroke="none" d="M 2996,18903 L 2815,18903 2815,18724 2996,18724 2996,18903 Z"/>
    <path fill="none" stroke="rgb(15,15,15)" id="Drawing_8_0" stroke-linejoin="round" d="M 2996,18903 L 2815,18903 2815,18724 2996,18724 2996,18903 Z"/>
   </g>
   <g>
    <path fill="rgb(255,255,255)" stroke="none" d="M 3233,18903 L 3054,18903 3054,18724 3233,18724 3233,18903 Z"/>
    <path fill="none" stroke="rgb(15,15,15)" id="Drawing_9_0" stroke-linejoin="round" d="M 3233,18903 L 3054,18903 3054,18724 3233,18724 3233,18903 Z"/>
   </g>
  </g>
 </g>
</svg>
