<?xml version="1.0" encoding="UTF-8"?>

<svg version="1.2" baseProfile="tiny" width="16.03mm" height="10.05mm" viewBox="7339 18312 1603 1005" preserveAspectRatio="xMidYMid" fill-rule="evenodd" stroke-width="28.222" stroke-linejoin="round" xmlns="http://www.w3.org/2000/svg" xmlns:xlink="http://www.w3.org/1999/xlink" xml:space="preserve">

 <g visibility="visible" id="Slide_1">
  <g id="DrawingGroup_1">
  <g>
    <path fill="rgb(204,255,153)" stroke="none" d="M 7364,19291 L 8916,19291 8916,18337 7364,18337 7364,19291 Z"/>
   </g>
   <g>
    <path fill="none" stroke="rgb(15,15,15)" id="Drawing_10_0" stroke-linejoin="round" d="M 7692,18814 L 7841,18814"/>
   </g>
   <g>
    <path fill="none" stroke="rgb(15,15,15)" id="Drawing_11_0" stroke-linejoin="round" d="M 8020,18814 L 8199,18814"/>
   </g>
   <g>
    <path fill="none" stroke="rgb(15,15,15)" id="Drawing_12_0" stroke-linejoin="round" d="M 8378,18814 L 8559,18814"/>
   </g>
   <g>
    <path fill="rgb(255,255,255)" stroke="none" d="M 7514,18905 L 7693,18905 7693,18726 7514,18726 7514,18905 Z"/>
    <path fill="none" stroke="rgb(15,15,15)" id="Drawing_13_0" stroke-linejoin="round" d="M 7514,18905 L 7693,18905 7693,18726 7514,18726 7514,18905 Z"/>
   </g>
   <g>
    <path fill="rgb(255,255,255)" stroke="none" d="M 7842,18905 L 8021,18905 8021,18726 7842,18726 7842,18905 Z"/>
    <path fill="none" stroke="rgb(15,15,15)" id="Drawing_14_0" stroke-linejoin="round" d="M 7842,18905 L 8021,18905 8021,18726 7842,18726 7842,18905 Z"/>
   </g>
   <g>
    <path fill="rgb(255,255,255)" stroke="none" d="M 8199,18905 L 8378,18905 8378,18726 8199,18726 8199,18905 Z"/>
    <path fill="none" stroke="rgb(15,15,15)" id="Drawing_15_0" stroke-linejoin="round" d="M 8199,18905 L 8378,18905 8378,18726 8199,18726 8199,18905 Z"/>
   </g>
   <g>
    <path fill="rgb(255,255,255)" stroke="none" d="M 8559,18905 L 8738,18905 8738,18726 8559,18726 8559,18905 Z"/>
    <path fill="none" stroke="rgb(15,15,15)" id="Drawing_16_0" stroke-linejoin="round" d="M 8559,18905 L 8738,18905 8738,18726 8559,18726 8559,18905 Z"/>
   </g>
  </g>
 </g>
</svg>
