<?xml version="1.0" standalone="no"?>
<!DOCTYPE svg PUBLIC "-//W3C//DTD SVG 20010904//EN"
 "http://www.w3.org/TR/2001/REC-SVG-20010904/DTD/svg10.dtd">
<svg version="1.0" xmlns="http://www.w3.org/2000/svg"
 width="512.000000pt" height="512.000000pt" viewBox="0 0 512.000000 512.000000"
 preserveAspectRatio="xMidYMid meet">

<g transform="translate(0.000000,512.000000) scale(0.100000,-0.100000)"
fill="#0074D9" stroke="none">
<path d="M895 5106 c-98 -31 -169 -97 -204 -190 l-21 -57 0 -2299 0 -2299 21
-58 c28 -72 94 -144 162 -174 l52 -24 1655 0 1655 0 52 24 c68 30 134 102 162
174 l21 58 -1 1947 0 1947 -445 483 -446 482 -1311 -1 c-1029 0 -1321 -3
-1352 -13z m2475 -644 c0 -366 1 -400 18 -431 38 -70 44 -71 444 -71 l358 0 0
-1828 c0 -1563 -2 -1831 -14 -1848 -14 -19 -42 -19 -1616 -19 -1574 0 -1602 0
-1616 19 -12 17 -14 343 -14 2276 0 2355 -1 2278 40 2293 8 3 552 6 1208 6
l1192 1 0 -398z m466 -32 l189 -205 -185 -3 c-101 -1 -190 0 -197 2 -10 4 -13
53 -13 212 0 113 4 204 9 202 4 -1 93 -95 197 -208z"/>
  <path d="M1212 4168 l3 -263 983 -3 982 -2 0 265 0 265 -985 0 -985 0 2 -262z"/>
  <path d="M1212 3168 l3 -263 983 -3 982 -2 0 265 0 265 -985 0 -985 0 2 -262z"/>
  <path d="M1212 2168 l3 -263 983 -3 982 -2 0 265 0 265 -985 0 -985 0 2 -262z"/>


</g>
</svg>
