<?xml version="1.0" encoding="UTF-8"?>

<svg version="1.2" baseProfile="tiny" width="16.03mm" height="10.05mm" viewBox="10112 18312 1603 1005" preserveAspectRatio="xMidYMid" fill-rule="evenodd" stroke-width="28.222" stroke-linejoin="round" xmlns="http://www.w3.org/2000/svg" xmlns:xlink="http://www.w3.org/1999/xlink" xml:space="preserve">

 <g visibility="visible" id="Slide_1">
  <g id="DrawingGroup_1">
   <g>
    <path fill="rgb(204,255,153)" stroke="none" d="M 10138,19291 L 11690,19291 11690,18337 10138,18337 10138,19291 Z"/>
   </g>
   <g>
    <path fill="rgb(255,255,255)" stroke="none" d="M 10346,18905 L 10525,18905 10525,18726 10346,18726 10346,18905 Z"/>
    <path fill="none" stroke="rgb(15,15,15)" id="Drawing_2_0" stroke-linejoin="round" d="M 10346,18905 L 10525,18905 10525,18726 10346,18726 10346,18905 Z"/>
   </g>
   <g>
    <path fill="rgb(15,15,15)" stroke="none" d="M 11153,18814 L 10894,18900 10894,18728 11153,18814 Z"/>
    <path fill="none" stroke="rgb(15,15,15)" id="Drawing_3_0" stroke-linejoin="round" d="M 11153,18814 L 10894,18900 10894,18728 11153,18814 Z"/>
   </g>
   <g>
    <path fill="none" stroke="rgb(15,15,15)" id="Drawing_4_0" stroke-linejoin="round" d="M 10676,18814 L 11153,18814"/>
   </g>
   <g>
    <path fill="rgb(255,255,255)" stroke="none" d="M 11332,18905 L 11511,18905 11511,18726 11332,18726 11332,18905 Z"/>
    <path fill="none" stroke="rgb(15,15,15)" id="Drawing_5_0" stroke-linejoin="round" d="M 11332,18905 L 11511,18905 11511,18726 11332,18726 11332,18905 Z"/>
   </g>
   <g>
    <path fill="rgb(255,255,255)" stroke="none" d="M 11332,18636 L 11511,18636 11511,18457 11332,18457 11332,18636 Z"/>
    <path fill="none" stroke="rgb(15,15,15)" id="Drawing_6_0" stroke-linejoin="round" d="M 11332,18636 L 11511,18636 11511,18457 11332,18457 11332,18636 Z"/>
   </g>
   <g>
    <path fill="rgb(255,255,255)" stroke="none" d="M 11332,19174 L 11511,19174 11511,18993 11332,18993 11332,19174 Z"/>
    <path fill="none" stroke="rgb(15,15,15)" id="Drawing_7_0" stroke-linejoin="round" d="M 11332,19174 L 11511,19174 11511,18993 11332,18993 11332,19174 Z"/>
   </g>
  </g>
 </g>
</svg>
