<?xml version="1.0" encoding="UTF-8"?>

<svg version="1.2" baseProfile="tiny" width="16.03mm" height="10.05mm" viewBox="1657 20976 1603 1005" preserveAspectRatio="xMidYMid" fill-rule="evenodd" stroke-width="28.222" stroke-linejoin="round" xmlns="http://www.w3.org/2000/svg" xmlns:xlink="http://www.w3.org/1999/xlink" xml:space="preserve">

 <g visibility="visible" id="Slide_1">
  <g id="DrawingGroup_1">
   <g>
    <path fill="rgb(204,255,153)" stroke="none" d="M 1682,21955 L 3234,21955 3234,21001 1682,21001 1682,21955 Z"/>
    </g>
   <g>
    <path fill="none" stroke="rgb(15,15,15)" id="Drawing_2_0" stroke-linejoin="round" d="M 1800,21478 L 3114,21478"/>
   </g>
   <g>
    <path fill="rgb(15,15,15)" stroke="none" d="M 2457,21449 L 2428,21478 2457,21508 2457,21449 Z"/>
    <path fill="none" stroke="rgb(15,15,15)" id="Drawing_3_0" stroke-linejoin="round" d="M 2457,21449 L 2428,21478 2457,21508 2457,21449 Z"/>
   </g>
   <g>
    <path fill="rgb(15,15,15)" stroke="none" d="M 2458,21449 L 2458,21508 2487,21478 2458,21449 Z"/>
    <path fill="none" stroke="rgb(15,15,15)" id="Drawing_4_0" stroke-linejoin="round" d="M 2458,21449 L 2458,21508 2487,21478 2458,21449 Z"/>
   </g>
   <g>
    <path fill="none" stroke="rgb(15,15,15)" id="Drawing_5_0" stroke-linejoin="round" d="M 2487,21478 L 2428,21478"/>
   </g>
   <g>
    <path fill="none" stroke="rgb(15,15,15)" id="Drawing_6_0" stroke-linejoin="round" d="M 2458,21478 L 2458,21718"/>
   </g>
   <g>
    <path fill="rgb(15,15,15)" stroke="none" d="M 2501,21718 L 2413,21718 2457,21806 2501,21718 Z"/>
    <path fill="none" stroke="rgb(15,15,15)" id="Drawing_7_0" stroke-linejoin="round" d="M 2501,21718 L 2413,21718 2457,21806 2501,21718 Z"/>
   </g>
   <g>
    <path fill="none" stroke="rgb(15,15,15)" id="Drawing_8_0" stroke-linejoin="round" d="M 2457,21806 L 2501,21718 2413,21718 2457,21806 Z"/>
   </g>
  </g>
 </g>
</svg>
