<?xml version="1.0" encoding="UTF-8"?>

<svg version="1.2" baseProfile="tiny" width="16.05mm" height="10.08mm" viewBox="10113 4427 1605 1008" preserveAspectRatio="xMidYMid" fill-rule="evenodd" stroke-width="28.222" stroke-linejoin="round" xmlns="http://www.w3.org/2000/svg" xmlns:xlink="http://www.w3.org/1999/xlink" xml:space="preserve">

 <g visibility="visible" id="Slide_1">
  <g id="DrawingGroup_1">
   <g>
    <path fill="rgb(204,255,153)" stroke="none" d="M 10138,5409 L 11692,5409 11692,4452 10138,4452 10138,5409 Z"/>
   </g>
   <g>
    <path fill="rgb(255,255,255)" stroke="none" d="M 10348,5020 L 10527,5020 10527,4841 10348,4841 10348,5020 Z"/>
    <path fill="none" stroke="rgb(15,15,15)" id="Drawing_2_0" stroke-linejoin="round" d="M 10348,5020 L 10527,5020 10527,4841 10348,4841 10348,5020 Z"/>
   </g>
   <g>
    <path fill="rgb(15,15,15)" stroke="none" d="M 11095,4929 L 10836,5015 10836,4843 11095,4929 Z"/>
    <path fill="none" stroke="rgb(15,15,15)" id="Drawing_3_0" stroke-linejoin="round" d="M 11095,4929 L 10836,5015 10836,4843 11095,4929 Z"/>
   </g>
   <g>
    <path fill="none" stroke="rgb(15,15,15)" id="Drawing_4_0" stroke-linejoin="round" d="M 10617,4929 L 11094,4929"/>
   </g>
   <g>
    <path fill="rgb(255,255,255)" stroke="none" d="M 11183,5139 L 11601,5139 11601,4721 11183,4721 11183,5139 Z"/>
    <path fill="none" stroke="rgb(15,15,15)" id="Drawing_5_0" stroke-linejoin="round" d="M 11183,5139 L 11601,5139 11601,4721 11183,4721 11183,5139 Z"/>
   </g>
  </g>
 </g>
</svg>
