<?xml version="1.0" encoding="UTF-8"?>

<svg version="1.2" baseProfile="tiny" width="16.03mm" height="10.05mm" viewBox="4388 9995 1603 1005" preserveAspectRatio="xMidYMid" fill-rule="evenodd" stroke-width="28.222" stroke-linejoin="round" xmlns="http://www.w3.org/2000/svg" xmlns:xlink="http://www.w3.org/1999/xlink" xml:space="preserve">

 <g visibility="visible" id="Slide_1">
  <g id="DrawingGroup_1">
   <g>
    <path fill="rgb(204,255,153)" stroke="none" d="M 4413,10974 L 5965,10974 5965,10020 4413,10020 4413,10974 Z"/>
   </g>
   <g>
    <path fill="none" stroke="rgb(141,141,141)" id="Drawing_2_0" stroke-linejoin="round" d="M 4651,10249 L 5727,10249"/>
   </g>
   <g>
    <path fill="rgb(141,141,141)" stroke="none" d="M 5637,10293 L 5637,10203 5727,10249 5637,10293 Z"/>
    <path fill="none" stroke="rgb(141,141,141)" id="Drawing_3_0" stroke-linejoin="round" d="M 5637,10293 L 5637,10203 5727,10249 5637,10293 Z"/>
   </g>
   <g>
    <path fill="none" stroke="rgb(141,141,141)" id="Drawing_4_0" stroke-linejoin="round" d="M 5727,10249 L 5637,10293 5637,10203 5727,10249 Z"/>
   </g>
   <g>
    <path fill="rgb(255,255,0)" stroke="none" d="M 4955,10673 L 5090,10402 5304,10402 5439,10673 5331,10846 5062,10846 4955,10673 Z"/>
    <path fill="none" stroke="rgb(15,15,15)" id="Drawing_5_0" stroke-linejoin="round" d="M 4955,10673 L 5090,10402 5304,10402 5439,10673 5331,10846 5062,10846 4955,10673 Z"/>
   </g>
   <g id="Drawing_6">
    <rect fill="none" stroke="none" x="4898" y="10305" width="609" height="646"/>
    <g fill="rgb(0,0,0)" stroke="none" font-family="Liberation Sans embedded" font-size="353" font-style="normal" font-weight="400">
     <text x="5148" y="10748">!</text>
    </g>
   </g>
  </g>
 </g>
</svg>
