<?xml version="1.0" encoding="UTF-8"?>

<svg version="1.2" baseProfile="tiny" width="16.05mm" height="10.05mm" viewBox="10111 12789 1605 1005" preserveAspectRatio="xMidYMid" fill-rule="evenodd" stroke-width="28.222" stroke-linejoin="round" xmlns="http://www.w3.org/2000/svg" xmlns:xlink="http://www.w3.org/1999/xlink" xml:space="preserve">

 <g visibility="visible" id="Slide_1">
  <g id="DrawingGroup_1">
   <g>
    <path fill="rgb(204,255,153)" stroke="none" d="M 10137,13768 L 11691,13768 11691,12814 10137,12814 10137,13768 Z"/>
   </g>
   <g>
    <path fill="rgb(179,179,179)" stroke="none" d="M 11188,13087 L 10675,13087 10675,13495 11188,13087 Z"/>
    <path fill="none" stroke="rgb(179,179,179)" id="Drawing_2_0" stroke-linejoin="round" d="M 11188,13087 L 10675,13087 10675,13495 11188,13087 Z"/>
   </g>
   <g>
    <path fill="rgb(179,179,179)" stroke="none" d="M 11188,13087 L 10675,13495 10709,13531 11188,13087 Z"/>
    <path fill="none" stroke="rgb(179,179,179)" id="Drawing_3_0" stroke-linejoin="round" d="M 11188,13087 L 10675,13495 10709,13531 11188,13087 Z"/>
   </g>
   <g>
    <path fill="rgb(179,179,179)" stroke="none" d="M 11188,13087 L 10709,13531 10804,13554 11188,13087 Z"/>
    <path fill="none" stroke="rgb(179,179,179)" id="Drawing_4_0" stroke-linejoin="round" d="M 11188,13087 L 10709,13531 10804,13554 11188,13087 Z"/>
   </g>
   <g>
    <path fill="rgb(179,179,179)" stroke="none" d="M 11189,13087 L 10804,13554 10932,13564 11189,13087 Z"/>
    <path fill="none" stroke="rgb(179,179,179)" id="Drawing_5_0" stroke-linejoin="round" d="M 11189,13087 L 10804,13554 10932,13564 11189,13087 Z"/>
   </g>
   <g>
    <path fill="rgb(179,179,179)" stroke="none" d="M 11188,13087 L 10932,13564 11060,13554 11188,13087 Z"/>
    <path fill="none" stroke="rgb(179,179,179)" id="Drawing_6_0" stroke-linejoin="round" d="M 11188,13087 L 10932,13564 11060,13554 11188,13087 Z"/>
   </g>
   <g>
    <path fill="rgb(179,179,179)" stroke="none" d="M 11188,13087 L 11060,13554 11153,13531 11188,13087 Z"/>
    <path fill="none" stroke="rgb(179,179,179)" id="Drawing_7_0" stroke-linejoin="round" d="M 11188,13087 L 11060,13554 11153,13531 11188,13087 Z"/>
   </g>
   <g>
    <path fill="rgb(179,179,179)" stroke="none" d="M 11189,13087 L 11153,13531 11189,13495 11189,13087 Z"/>
    <path fill="none" stroke="rgb(179,179,179)" id="Drawing_8_0" stroke-linejoin="round" d="M 11189,13087 L 11153,13531 11189,13495 11189,13087 Z"/>
   </g>
   <g>
    <path fill="none" stroke="rgb(15,15,15)" id="Drawing_9_0" stroke-linejoin="round" d="M 11188,13495 L 11188,13087 10675,13087 10675,13495 10694,13522 10751,13543 10833,13558 10931,13564 11028,13558 11112,13543 11167,13522 11188,13495 Z"/>
   </g>
   <g>
    <path fill="rgb(179,179,179)" stroke="none" d="M 11142,13049 L 11035,13024 10894,13020 11142,13049 Z"/>
    <path fill="none" stroke="rgb(179,179,179)" id="Drawing_10_0" stroke-linejoin="round" d="M 11142,13049 L 11035,13024 10894,13020 11142,13049 Z"/>
   </g>
   <g>
    <path fill="rgb(179,179,179)" stroke="none" d="M 11142,13049 L 10894,13020 10764,13035 11142,13049 Z"/>
    <path fill="none" stroke="rgb(179,179,179)" id="Drawing_11_0" stroke-linejoin="round" d="M 11142,13049 L 10894,13020 10764,13035 11142,13049 Z"/>
   </g>
   <g>
    <path fill="rgb(179,179,179)" stroke="none" d="M 11142,13050 L 10764,13035 10686,13067 11142,13050 Z"/>
    <path fill="none" stroke="rgb(179,179,179)" id="Drawing_12_0" stroke-linejoin="round" d="M 11142,13050 L 10764,13035 10686,13067 11142,13050 Z"/>
   </g>
   <g>
    <path fill="rgb(179,179,179)" stroke="none" d="M 11142,13049 L 10686,13066 10686,13106 11142,13049 Z"/>
    <path fill="none" stroke="rgb(179,179,179)" id="Drawing_13_0" stroke-linejoin="round" d="M 11142,13049 L 10686,13066 10686,13106 11142,13049 Z"/>
   </g>
   <g>
    <path fill="rgb(179,179,179)" stroke="none" d="M 11142,13049 L 10686,13106 10764,13137 11142,13049 Z"/>
    <path fill="none" stroke="rgb(179,179,179)" id="Drawing_14_0" stroke-linejoin="round" d="M 11142,13049 L 10686,13106 10764,13137 11142,13049 Z"/>
   </g>
   <g>
    <path fill="rgb(179,179,179)" stroke="none" d="M 11142,13049 L 10764,13137 10894,13152 11142,13049 Z"/>
    <path fill="none" stroke="rgb(179,179,179)" id="Drawing_15_0" stroke-linejoin="round" d="M 11142,13049 L 10764,13137 10894,13152 11142,13049 Z"/>
   </g>
   <g>
    <path fill="rgb(179,179,179)" stroke="none" d="M 11142,13049 L 10894,13152 11035,13148 11142,13049 Z"/>
    <path fill="none" stroke="rgb(179,179,179)" id="Drawing_16_0" stroke-linejoin="round" d="M 11142,13049 L 10894,13152 11035,13148 11142,13049 Z"/>
   </g>
   <g>
    <path fill="rgb(179,179,179)" stroke="none" d="M 11142,13049 L 11035,13148 11142,13123 11142,13049 Z"/>
    <path fill="none" stroke="rgb(179,179,179)" id="Drawing_17_0" stroke-linejoin="round" d="M 11142,13049 L 11035,13148 11142,13123 11142,13049 Z"/>
   </g>
   <g>
    <path fill="rgb(179,179,179)" stroke="none" d="M 11142,13049 L 11142,13123 11184,13087 11142,13049 Z"/>
    <path fill="none" stroke="rgb(179,179,179)" id="Drawing_18_0" stroke-linejoin="round" d="M 11142,13049 L 11142,13123 11184,13087 11142,13049 Z"/>
   </g>
   <g>
    <path fill="none" stroke="rgb(15,15,15)" id="Drawing_19_0" stroke-linejoin="round" d="M 11184,13087 L 11163,13060 11108,13039 11026,13024 10929,13018 10833,13024 10749,13039 10694,13060 10675,13087 10694,13113 10749,13134 10833,13148 10929,13155 11026,13148 11108,13134 11163,13113 11184,13087 Z"/>
   </g>
  </g>
 </g>
</svg>
