<?xml version="1.0" encoding="UTF-8"?>

<svg version="1.2" baseProfile="tiny" width="16.13mm" height="10.05mm" viewBox="18755 7192 1613 1005" preserveAspectRatio="xMidYMid" fill-rule="evenodd" stroke-width="28.222" stroke-linejoin="round" xmlns="http://www.w3.org/2000/svg" xmlns:xlink="http://www.w3.org/1999/xlink" xml:space="preserve">

 <g visibility="visible" id="Slide_1">
  <g id="DrawingGroup_1">
   <g>
    <path fill="rgb(204,255,153)" stroke="none" d="M 18780,8171 L 20342,8171 20342,7217 18780,7217 18780,8171 Z"/>
    </g>
   <g>
    <path fill="#0074D9" stroke="none" d="M 19461,7993 L 19671,7993 19671,7703 19461,7993 Z"/>
    <path fill="none" stroke="#0074D9" id="Drawing_2_0" stroke-linejoin="round" d="M 19461,7993 L 19671,7993 19671,7703 19461,7993 Z"/>
   </g>
   <g>
    <path fill="#0074D9" stroke="none" d="M 19461,7993 L 19671,7702 19842,7406 19461,7993 Z"/>
    <path fill="none" stroke="#0074D9" id="Drawing_3_0" stroke-linejoin="round" d="M 19461,7993 L 19671,7702 19842,7406 19461,7993 Z"/>
   </g>
   <g>
    <path fill="#0074D9" stroke="none" d="M 19460,7993 L 19841,7406 19290,7406 19460,7993 Z"/>
    <path fill="none" stroke="#0074D9" id="Drawing_4_0" stroke-linejoin="round" d="M 19460,7993 L 19841,7406 19290,7406 19460,7993 Z"/>
   </g>
   <g>
    <path fill="none" stroke="rgb(15,15,15)" id="Drawing_5_0" stroke-linejoin="round" d="M 19460,7702 L 19460,7993 19671,7993 19671,7702 19841,7406 19290,7406 19460,7702 Z"/>
   </g>
   <g>
    <path fill="rgb(204,255,153)" stroke="none" d="M 19460,8096 L 19290,7406 19460,7702 19460,8096 Z"/>
    <rect fill="none" stroke="none" x="19290" y="7406" width="171" height="692"/>
   </g>
  </g>
 </g>
</svg>
