<?xml version="1.0" encoding="UTF-8"?>

<svg version="1.2" baseProfile="tiny" width="16.03mm" height="10.08mm" viewBox="1656 12789 1603 1008" preserveAspectRatio="xMidYMid" fill-rule="evenodd" stroke-width="28.222" stroke-linejoin="round" xmlns="http://www.w3.org/2000/svg" xmlns:xlink="http://www.w3.org/1999/xlink" xml:space="preserve">

 <g visibility="visible" id="Slide_1">
  <g id="DrawingGroup_1">
   <g>
    <path fill="rgb(204,255,153)" stroke="none" d="M 1681,13771 L 3233,13771 3233,12814 1681,12814 1681,13771 Z"/>
    </g>
   <g>
    <path fill="rgb(15,15,15)" stroke="none" d="M 2036,13310 L 2044,13327 2055,13342 2036,13310 Z"/>
    <path fill="none" stroke="rgb(15,15,15)" id="Drawing_2_0" stroke-linejoin="round" d="M 2036,13310 L 2044,13327 2055,13342 2036,13310 Z"/>
   </g>
   <g>
    <path fill="rgb(15,15,15)" stroke="none" d="M 2036,13310 L 2055,13342 2072,13350 2036,13310 Z"/>
    <path fill="none" stroke="rgb(15,15,15)" id="Drawing_3_0" stroke-linejoin="round" d="M 2036,13310 L 2055,13342 2072,13350 2036,13310 Z"/>
   </g>
   <g>
    <path fill="rgb(15,15,15)" stroke="none" d="M 2036,13310 L 2072,13350 2089,13356 2036,13310 Z"/>
    <path fill="none" stroke="rgb(15,15,15)" id="Drawing_4_0" stroke-linejoin="round" d="M 2036,13310 L 2072,13350 2089,13356 2036,13310 Z"/>
   </g>
   <g>
    <path fill="rgb(15,15,15)" stroke="none" d="M 2036,13310 L 2089,13356 2107,13356 2036,13310 Z"/>
    <path fill="none" stroke="rgb(15,15,15)" id="Drawing_5_0" stroke-linejoin="round" d="M 2036,13310 L 2089,13356 2107,13356 2036,13310 Z"/>
   </g>
   <g>
    <path fill="rgb(15,15,15)" stroke="none" d="M 2036,13310 L 2107,13356 2124,13350 2036,13310 Z"/>
    <path fill="none" stroke="rgb(15,15,15)" id="Drawing_6_0" stroke-linejoin="round" d="M 2036,13310 L 2107,13356 2124,13350 2036,13310 Z"/>
   </g>
   <g>
    <path fill="rgb(15,15,15)" stroke="none" d="M 2036,13310 L 2124,13350 2139,13342 2036,13310 Z"/>
    <path fill="none" stroke="rgb(15,15,15)" id="Drawing_7_0" stroke-linejoin="round" d="M 2036,13310 L 2124,13350 2139,13342 2036,13310 Z"/>
   </g>
   <g>
    <path fill="rgb(15,15,15)" stroke="none" d="M 2036,13310 L 2139,13342 2152,13327 2036,13310 Z"/>
    <path fill="none" stroke="rgb(15,15,15)" id="Drawing_8_0" stroke-linejoin="round" d="M 2036,13310 L 2139,13342 2152,13327 2036,13310 Z"/>
   </g>
   <g>
    <path fill="rgb(15,15,15)" stroke="none" d="M 2036,13310 L 2152,13327 2160,13310 2036,13310 Z"/>
    <path fill="none" stroke="rgb(15,15,15)" id="Drawing_9_0" stroke-linejoin="round" d="M 2036,13310 L 2152,13327 2160,13310 2036,13310 Z"/>
   </g>
   <g>
    <path fill="rgb(15,15,15)" stroke="none" d="M 2036,13310 L 2160,13310 2162,13291 2036,13310 Z"/>
    <path fill="none" stroke="rgb(15,15,15)" id="Drawing_10_0" stroke-linejoin="round" d="M 2036,13310 L 2160,13310 2162,13291 2036,13310 Z"/>
   </g>
   <g>
    <path fill="rgb(15,15,15)" stroke="none" d="M 2036,13310 L 2162,13291 2160,13274 2036,13310 Z"/>
    <path fill="none" stroke="rgb(15,15,15)" id="Drawing_11_0" stroke-linejoin="round" d="M 2036,13310 L 2162,13291 2160,13274 2036,13310 Z"/>
   </g>
   <g>
    <path fill="rgb(15,15,15)" stroke="none" d="M 2036,13311 L 2160,13275 2152,13258 2036,13311 Z"/>
    <path fill="none" stroke="rgb(15,15,15)" id="Drawing_12_0" stroke-linejoin="round" d="M 2036,13311 L 2160,13275 2152,13258 2036,13311 Z"/>
   </g>
   <g>
    <path fill="rgb(15,15,15)" stroke="none" d="M 2036,13310 L 2152,13258 2139,13243 2036,13310 Z"/>
    <path fill="none" stroke="rgb(15,15,15)" id="Drawing_13_0" stroke-linejoin="round" d="M 2036,13310 L 2152,13258 2139,13243 2036,13310 Z"/>
   </g>
   <g>
    <path fill="rgb(15,15,15)" stroke="none" d="M 2036,13310 L 2139,13242 2124,13234 2036,13310 Z"/>
    <path fill="none" stroke="rgb(15,15,15)" id="Drawing_14_0" stroke-linejoin="round" d="M 2036,13310 L 2139,13242 2124,13234 2036,13310 Z"/>
   </g>
   <g>
    <path fill="rgb(15,15,15)" stroke="none" d="M 2036,13310 L 2124,13234 2107,13228 2036,13310 Z"/>
    <path fill="none" stroke="rgb(15,15,15)" id="Drawing_15_0" stroke-linejoin="round" d="M 2036,13310 L 2124,13234 2107,13228 2036,13310 Z"/>
   </g>
   <g>
    <path fill="rgb(15,15,15)" stroke="none" d="M 2036,13310 L 2107,13228 2089,13228 2036,13310 Z"/>
    <path fill="none" stroke="rgb(15,15,15)" id="Drawing_16_0" stroke-linejoin="round" d="M 2036,13310 L 2107,13228 2089,13228 2036,13310 Z"/>
   </g>
   <g>
    <path fill="rgb(15,15,15)" stroke="none" d="M 2036,13310 L 2089,13228 2072,13234 2036,13310 Z"/>
    <path fill="none" stroke="rgb(15,15,15)" id="Drawing_17_0" stroke-linejoin="round" d="M 2036,13310 L 2089,13228 2072,13234 2036,13310 Z"/>
   </g>
   <g>
    <path fill="rgb(15,15,15)" stroke="none" d="M 2036,13310 L 2072,13234 2055,13242 2036,13310 Z"/>
    <path fill="none" stroke="rgb(15,15,15)" id="Drawing_18_0" stroke-linejoin="round" d="M 2036,13310 L 2072,13234 2055,13242 2036,13310 Z"/>
   </g>
   <g>
    <path fill="rgb(15,15,15)" stroke="none" d="M 2036,13310 L 2055,13243 2044,13258 2036,13310 Z"/>
    <path fill="none" stroke="rgb(15,15,15)" id="Drawing_19_0" stroke-linejoin="round" d="M 2036,13310 L 2055,13243 2044,13258 2036,13310 Z"/>
   </g>
   <g>
    <path fill="rgb(15,15,15)" stroke="none" d="M 2036,13311 L 2044,13258 2036,13275 2036,13311 Z"/>
    <path fill="none" stroke="rgb(15,15,15)" id="Drawing_20_0" stroke-linejoin="round" d="M 2036,13311 L 2044,13258 2036,13275 2036,13311 Z"/>
   </g>
   <g>
    <path fill="rgb(15,15,15)" stroke="none" d="M 2036,13310 L 2036,13274 2034,13291 2036,13310 Z"/>
    <path fill="none" stroke="rgb(15,15,15)" id="Drawing_21_0" stroke-linejoin="round" d="M 2036,13310 L 2036,13274 2034,13291 2036,13310 Z"/>
   </g>
   <g>
    <path fill="none" stroke="rgb(15,15,15)" id="Drawing_22_0" stroke-linejoin="round" d="M 1799,13291 L 2098,13291"/>
   </g>
   <g>
    <path fill="rgb(15,15,15)" stroke="none" d="M 2877,12976 L 2869,12959 2856,12944 2877,12976 Z"/>
    <path fill="none" stroke="rgb(15,15,15)" id="Drawing_23_0" stroke-linejoin="round" d="M 2877,12976 L 2869,12959 2856,12944 2877,12976 Z"/>
   </g>
   <g>
    <path fill="rgb(15,15,15)" stroke="none" d="M 2877,12976 L 2856,12945 2841,12934 2877,12976 Z"/>
    <path fill="none" stroke="rgb(15,15,15)" id="Drawing_24_0" stroke-linejoin="round" d="M 2877,12976 L 2856,12945 2841,12934 2877,12976 Z"/>
   </g>
   <g>
    <path fill="rgb(15,15,15)" stroke="none" d="M 2878,12976 L 2842,12934 2825,12930 2878,12976 Z"/>
    <path fill="none" stroke="rgb(15,15,15)" id="Drawing_25_0" stroke-linejoin="round" d="M 2878,12976 L 2842,12934 2825,12930 2878,12976 Z"/>
   </g>
   <g>
    <path fill="rgb(15,15,15)" stroke="none" d="M 2877,12976 L 2825,12930 2806,12930 2877,12976 Z"/>
    <path fill="none" stroke="rgb(15,15,15)" id="Drawing_26_0" stroke-linejoin="round" d="M 2877,12976 L 2825,12930 2806,12930 2877,12976 Z"/>
   </g>
   <g>
    <path fill="rgb(15,15,15)" stroke="none" d="M 2877,12976 L 2806,12930 2789,12934 2877,12976 Z"/>
    <path fill="none" stroke="rgb(15,15,15)" id="Drawing_27_0" stroke-linejoin="round" d="M 2877,12976 L 2806,12930 2789,12934 2877,12976 Z"/>
   </g>
   <g>
    <path fill="rgb(15,15,15)" stroke="none" d="M 2877,12976 L 2789,12934 2772,12945 2877,12976 Z"/>
    <path fill="none" stroke="rgb(15,15,15)" id="Drawing_28_0" stroke-linejoin="round" d="M 2877,12976 L 2789,12934 2772,12945 2877,12976 Z"/>
   </g>
   <g>
    <path fill="rgb(15,15,15)" stroke="none" d="M 2877,12976 L 2772,12944 2759,12959 2877,12976 Z"/>
    <path fill="none" stroke="rgb(15,15,15)" id="Drawing_29_0" stroke-linejoin="round" d="M 2877,12976 L 2772,12944 2759,12959 2877,12976 Z"/>
   </g>
   <g>
    <path fill="rgb(15,15,15)" stroke="none" d="M 2877,12976 L 2759,12959 2753,12976 2877,12976 Z"/>
    <path fill="none" stroke="rgb(15,15,15)" id="Drawing_30_0" stroke-linejoin="round" d="M 2877,12976 L 2759,12959 2753,12976 2877,12976 Z"/>
   </g>
   <g>
    <path fill="rgb(15,15,15)" stroke="none" d="M 2877,12976 L 2753,12976 2751,12993 2877,12976 Z"/>
    <path fill="none" stroke="rgb(15,15,15)" id="Drawing_31_0" stroke-linejoin="round" d="M 2877,12976 L 2753,12976 2751,12993 2877,12976 Z"/>
   </g>
   <g>
    <path fill="rgb(15,15,15)" stroke="none" d="M 2877,12976 L 2751,12993 2753,13012 2877,12976 Z"/>
    <path fill="none" stroke="rgb(15,15,15)" id="Drawing_32_0" stroke-linejoin="round" d="M 2877,12976 L 2751,12993 2753,13012 2877,12976 Z"/>
   </g>
   <g>
    <path fill="rgb(15,15,15)" stroke="none" d="M 2877,12976 L 2753,13012 2759,13029 2877,12976 Z"/>
    <path fill="none" stroke="rgb(15,15,15)" id="Drawing_33_0" stroke-linejoin="round" d="M 2877,12976 L 2753,13012 2759,13029 2877,12976 Z"/>
   </g>
   <g>
    <path fill="rgb(15,15,15)" stroke="none" d="M 2877,12976 L 2759,13029 2772,13043 2877,12976 Z"/>
    <path fill="none" stroke="rgb(15,15,15)" id="Drawing_34_0" stroke-linejoin="round" d="M 2877,12976 L 2759,13029 2772,13043 2877,12976 Z"/>
   </g>
   <g>
    <path fill="rgb(15,15,15)" stroke="none" d="M 2877,12976 L 2772,13043 2789,13052 2877,12976 Z"/>
    <path fill="none" stroke="rgb(15,15,15)" id="Drawing_35_0" stroke-linejoin="round" d="M 2877,12976 L 2772,13043 2789,13052 2877,12976 Z"/>
   </g>
   <g>
    <path fill="rgb(15,15,15)" stroke="none" d="M 2877,12976 L 2789,13052 2806,13058 2877,12976 Z"/>
    <path fill="none" stroke="rgb(15,15,15)" id="Drawing_36_0" stroke-linejoin="round" d="M 2877,12976 L 2789,13052 2806,13058 2877,12976 Z"/>
   </g>
   <g>
    <path fill="rgb(15,15,15)" stroke="none" d="M 2877,12976 L 2806,13058 2825,13058 2877,12976 Z"/>
    <path fill="none" stroke="rgb(15,15,15)" id="Drawing_37_0" stroke-linejoin="round" d="M 2877,12976 L 2806,13058 2825,13058 2877,12976 Z"/>
   </g>
   <g>
    <path fill="rgb(15,15,15)" stroke="none" d="M 2878,12976 L 2825,13058 2842,13052 2878,12976 Z"/>
    <path fill="none" stroke="rgb(15,15,15)" id="Drawing_38_0" stroke-linejoin="round" d="M 2878,12976 L 2825,13058 2842,13052 2878,12976 Z"/>
   </g>
   <g>
    <path fill="rgb(15,15,15)" stroke="none" d="M 2877,12976 L 2841,13052 2856,13043 2877,12976 Z"/>
    <path fill="none" stroke="rgb(15,15,15)" id="Drawing_39_0" stroke-linejoin="round" d="M 2877,12976 L 2841,13052 2856,13043 2877,12976 Z"/>
   </g>
   <g>
    <path fill="rgb(15,15,15)" stroke="none" d="M 2877,12976 L 2856,13043 2869,13029 2877,12976 Z"/>
    <path fill="none" stroke="rgb(15,15,15)" id="Drawing_40_0" stroke-linejoin="round" d="M 2877,12976 L 2856,13043 2869,13029 2877,12976 Z"/>
   </g>
   <g>
    <path fill="rgb(15,15,15)" stroke="none" d="M 2877,12976 L 2869,13029 2877,13012 2877,12976 Z"/>
    <path fill="none" stroke="rgb(15,15,15)" id="Drawing_41_0" stroke-linejoin="round" d="M 2877,12976 L 2869,13029 2877,13012 2877,12976 Z"/>
   </g>
   <g>
    <path fill="rgb(15,15,15)" stroke="none" d="M 2877,12976 L 2877,13012 2879,12993 2877,12976 Z"/>
    <path fill="none" stroke="rgb(15,15,15)" id="Drawing_42_0" stroke-linejoin="round" d="M 2877,12976 L 2877,13012 2879,12993 2877,12976 Z"/>
   </g>
   <g>
    <path fill="none" stroke="rgb(15,15,15)" id="Drawing_43_0" stroke-linejoin="round" d="M 2814,12993 L 3113,12993"/>
   </g>
   <g>
    <path fill="rgb(15,15,15)" stroke="none" d="M 2877,13275 L 2869,13258 2856,13243 2877,13275 Z"/>
    <path fill="none" stroke="rgb(15,15,15)" id="Drawing_44_0" stroke-linejoin="round" d="M 2877,13275 L 2869,13258 2856,13243 2877,13275 Z"/>
   </g>
   <g>
    <path fill="rgb(15,15,15)" stroke="none" d="M 2877,13274 L 2856,13242 2841,13234 2877,13274 Z"/>
    <path fill="none" stroke="rgb(15,15,15)" id="Drawing_45_0" stroke-linejoin="round" d="M 2877,13274 L 2856,13242 2841,13234 2877,13274 Z"/>
   </g>
   <g>
    <path fill="rgb(15,15,15)" stroke="none" d="M 2878,13274 L 2842,13234 2825,13228 2878,13274 Z"/>
    <path fill="none" stroke="rgb(15,15,15)" id="Drawing_46_0" stroke-linejoin="round" d="M 2878,13274 L 2842,13234 2825,13228 2878,13274 Z"/>
   </g>
   <g>
    <path fill="rgb(15,15,15)" stroke="none" d="M 2877,13274 L 2825,13228 2806,13228 2877,13274 Z"/>
    <path fill="none" stroke="rgb(15,15,15)" id="Drawing_47_0" stroke-linejoin="round" d="M 2877,13274 L 2825,13228 2806,13228 2877,13274 Z"/>
   </g>
   <g>
    <path fill="rgb(15,15,15)" stroke="none" d="M 2877,13274 L 2806,13228 2789,13234 2877,13274 Z"/>
    <path fill="none" stroke="rgb(15,15,15)" id="Drawing_48_0" stroke-linejoin="round" d="M 2877,13274 L 2806,13228 2789,13234 2877,13274 Z"/>
   </g>
   <g>
    <path fill="rgb(15,15,15)" stroke="none" d="M 2877,13274 L 2789,13234 2772,13242 2877,13274 Z"/>
    <path fill="none" stroke="rgb(15,15,15)" id="Drawing_49_0" stroke-linejoin="round" d="M 2877,13274 L 2789,13234 2772,13242 2877,13274 Z"/>
   </g>
   <g>
    <path fill="rgb(15,15,15)" stroke="none" d="M 2877,13275 L 2772,13243 2759,13258 2877,13275 Z"/>
    <path fill="none" stroke="rgb(15,15,15)" id="Drawing_50_0" stroke-linejoin="round" d="M 2877,13275 L 2772,13243 2759,13258 2877,13275 Z"/>
   </g>
   <g>
    <path fill="rgb(15,15,15)" stroke="none" d="M 2877,13275 L 2759,13258 2753,13275 2877,13275 Z"/>
    <path fill="none" stroke="rgb(15,15,15)" id="Drawing_51_0" stroke-linejoin="round" d="M 2877,13275 L 2759,13258 2753,13275 2877,13275 Z"/>
   </g>
   <g>
    <path fill="rgb(15,15,15)" stroke="none" d="M 2877,13274 L 2753,13274 2751,13291 2877,13274 Z"/>
    <path fill="none" stroke="rgb(15,15,15)" id="Drawing_52_0" stroke-linejoin="round" d="M 2877,13274 L 2753,13274 2751,13291 2877,13274 Z"/>
   </g>
   <g>
    <path fill="rgb(15,15,15)" stroke="none" d="M 2877,13274 L 2751,13291 2753,13310 2877,13274 Z"/>
    <path fill="none" stroke="rgb(15,15,15)" id="Drawing_53_0" stroke-linejoin="round" d="M 2877,13274 L 2751,13291 2753,13310 2877,13274 Z"/>
   </g>
   <g>
    <path fill="rgb(15,15,15)" stroke="none" d="M 2877,13274 L 2753,13310 2759,13327 2877,13274 Z"/>
    <path fill="none" stroke="rgb(15,15,15)" id="Drawing_54_0" stroke-linejoin="round" d="M 2877,13274 L 2753,13310 2759,13327 2877,13274 Z"/>
   </g>
   <g>
    <path fill="rgb(15,15,15)" stroke="none" d="M 2877,13274 L 2759,13327 2772,13341 2877,13274 Z"/>
    <path fill="none" stroke="rgb(15,15,15)" id="Drawing_55_0" stroke-linejoin="round" d="M 2877,13274 L 2759,13327 2772,13341 2877,13274 Z"/>
   </g>
   <g>
    <path fill="rgb(15,15,15)" stroke="none" d="M 2877,13274 L 2772,13341 2789,13350 2877,13274 Z"/>
    <path fill="none" stroke="rgb(15,15,15)" id="Drawing_56_0" stroke-linejoin="round" d="M 2877,13274 L 2772,13341 2789,13350 2877,13274 Z"/>
   </g>
   <g>
    <path fill="rgb(15,15,15)" stroke="none" d="M 2877,13274 L 2789,13350 2806,13356 2877,13274 Z"/>
    <path fill="none" stroke="rgb(15,15,15)" id="Drawing_57_0" stroke-linejoin="round" d="M 2877,13274 L 2789,13350 2806,13356 2877,13274 Z"/>
   </g>
   <g>
    <path fill="rgb(15,15,15)" stroke="none" d="M 2877,13274 L 2806,13356 2825,13356 2877,13274 Z"/>
    <path fill="none" stroke="rgb(15,15,15)" id="Drawing_58_0" stroke-linejoin="round" d="M 2877,13274 L 2806,13356 2825,13356 2877,13274 Z"/>
   </g>
   <g>
    <path fill="rgb(15,15,15)" stroke="none" d="M 2878,13274 L 2825,13356 2842,13350 2878,13274 Z"/>
    <path fill="none" stroke="rgb(15,15,15)" id="Drawing_59_0" stroke-linejoin="round" d="M 2878,13274 L 2825,13356 2842,13350 2878,13274 Z"/>
   </g>
   <g>
    <path fill="rgb(15,15,15)" stroke="none" d="M 2877,13274 L 2841,13350 2856,13341 2877,13274 Z"/>
    <path fill="none" stroke="rgb(15,15,15)" id="Drawing_60_0" stroke-linejoin="round" d="M 2877,13274 L 2841,13350 2856,13341 2877,13274 Z"/>
   </g>
   <g>
    <path fill="rgb(15,15,15)" stroke="none" d="M 2877,13274 L 2856,13341 2869,13327 2877,13274 Z"/>
    <path fill="none" stroke="rgb(15,15,15)" id="Drawing_61_0" stroke-linejoin="round" d="M 2877,13274 L 2856,13341 2869,13327 2877,13274 Z"/>
   </g>
   <g>
    <path fill="rgb(15,15,15)" stroke="none" d="M 2877,13274 L 2869,13327 2877,13310 2877,13274 Z"/>
    <path fill="none" stroke="rgb(15,15,15)" id="Drawing_62_0" stroke-linejoin="round" d="M 2877,13274 L 2869,13327 2877,13310 2877,13274 Z"/>
   </g>
   <g>
    <path fill="rgb(15,15,15)" stroke="none" d="M 2877,13274 L 2877,13310 2879,13291 2877,13274 Z"/>
    <path fill="none" stroke="rgb(15,15,15)" id="Drawing_63_0" stroke-linejoin="round" d="M 2877,13274 L 2877,13310 2879,13291 2877,13274 Z"/>
   </g>
   <g>
    <path fill="none" stroke="rgb(15,15,15)" id="Drawing_64_0" stroke-linejoin="round" d="M 2814,13291 L 3113,13291"/>
   </g>
   <g>
    <path fill="rgb(15,15,15)" stroke="none" d="M 2877,13573 L 2869,13556 2856,13541 2877,13573 Z"/>
    <path fill="none" stroke="rgb(15,15,15)" id="Drawing_65_0" stroke-linejoin="round" d="M 2877,13573 L 2869,13556 2856,13541 2877,13573 Z"/>
   </g>
   <g>
    <path fill="rgb(15,15,15)" stroke="none" d="M 2877,13573 L 2856,13541 2841,13533 2877,13573 Z"/>
    <path fill="none" stroke="rgb(15,15,15)" id="Drawing_66_0" stroke-linejoin="round" d="M 2877,13573 L 2856,13541 2841,13533 2877,13573 Z"/>
   </g>
   <g>
    <path fill="rgb(15,15,15)" stroke="none" d="M 2878,13573 L 2842,13533 2825,13527 2878,13573 Z"/>
    <path fill="none" stroke="rgb(15,15,15)" id="Drawing_67_0" stroke-linejoin="round" d="M 2878,13573 L 2842,13533 2825,13527 2878,13573 Z"/>
   </g>
   <g>
    <path fill="rgb(15,15,15)" stroke="none" d="M 2877,13573 L 2825,13527 2806,13527 2877,13573 Z"/>
    <path fill="none" stroke="rgb(15,15,15)" id="Drawing_68_0" stroke-linejoin="round" d="M 2877,13573 L 2825,13527 2806,13527 2877,13573 Z"/>
   </g>
   <g>
    <path fill="rgb(15,15,15)" stroke="none" d="M 2877,13573 L 2806,13527 2789,13533 2877,13573 Z"/>
    <path fill="none" stroke="rgb(15,15,15)" id="Drawing_69_0" stroke-linejoin="round" d="M 2877,13573 L 2806,13527 2789,13533 2877,13573 Z"/>
   </g>
   <g>
    <path fill="rgb(15,15,15)" stroke="none" d="M 2877,13573 L 2789,13533 2772,13541 2877,13573 Z"/>
    <path fill="none" stroke="rgb(15,15,15)" id="Drawing_70_0" stroke-linejoin="round" d="M 2877,13573 L 2789,13533 2772,13541 2877,13573 Z"/>
   </g>
   <g>
    <path fill="rgb(15,15,15)" stroke="none" d="M 2877,13573 L 2772,13541 2759,13556 2877,13573 Z"/>
    <path fill="none" stroke="rgb(15,15,15)" id="Drawing_71_0" stroke-linejoin="round" d="M 2877,13573 L 2772,13541 2759,13556 2877,13573 Z"/>
   </g>
   <g>
    <path fill="rgb(15,15,15)" stroke="none" d="M 2877,13573 L 2759,13556 2753,13573 2877,13573 Z"/>
    <path fill="none" stroke="rgb(15,15,15)" id="Drawing_72_0" stroke-linejoin="round" d="M 2877,13573 L 2759,13556 2753,13573 2877,13573 Z"/>
   </g>
   <g>
    <path fill="rgb(15,15,15)" stroke="none" d="M 2877,13573 L 2753,13573 2751,13590 2877,13573 Z"/>
    <path fill="none" stroke="rgb(15,15,15)" id="Drawing_73_0" stroke-linejoin="round" d="M 2877,13573 L 2753,13573 2751,13590 2877,13573 Z"/>
   </g>
   <g>
    <path fill="rgb(15,15,15)" stroke="none" d="M 2877,13573 L 2751,13590 2753,13609 2877,13573 Z"/>
    <path fill="none" stroke="rgb(15,15,15)" id="Drawing_74_0" stroke-linejoin="round" d="M 2877,13573 L 2751,13590 2753,13609 2877,13573 Z"/>
   </g>
   <g>
    <path fill="rgb(15,15,15)" stroke="none" d="M 2877,13573 L 2753,13609 2759,13626 2877,13573 Z"/>
    <path fill="none" stroke="rgb(15,15,15)" id="Drawing_75_0" stroke-linejoin="round" d="M 2877,13573 L 2753,13609 2759,13626 2877,13573 Z"/>
   </g>
   <g>
    <path fill="rgb(15,15,15)" stroke="none" d="M 2877,13573 L 2759,13626 2772,13640 2877,13573 Z"/>
    <path fill="none" stroke="rgb(15,15,15)" id="Drawing_76_0" stroke-linejoin="round" d="M 2877,13573 L 2759,13626 2772,13640 2877,13573 Z"/>
   </g>
   <g>
    <path fill="rgb(15,15,15)" stroke="none" d="M 2877,13573 L 2772,13640 2789,13649 2877,13573 Z"/>
    <path fill="none" stroke="rgb(15,15,15)" id="Drawing_77_0" stroke-linejoin="round" d="M 2877,13573 L 2772,13640 2789,13649 2877,13573 Z"/>
   </g>
   <g>
    <path fill="rgb(15,15,15)" stroke="none" d="M 2877,13573 L 2789,13649 2806,13655 2877,13573 Z"/>
    <path fill="none" stroke="rgb(15,15,15)" id="Drawing_78_0" stroke-linejoin="round" d="M 2877,13573 L 2789,13649 2806,13655 2877,13573 Z"/>
   </g>
   <g>
    <path fill="rgb(15,15,15)" stroke="none" d="M 2877,13573 L 2806,13655 2825,13655 2877,13573 Z"/>
    <path fill="none" stroke="rgb(15,15,15)" id="Drawing_79_0" stroke-linejoin="round" d="M 2877,13573 L 2806,13655 2825,13655 2877,13573 Z"/>
   </g>
   <g>
    <path fill="rgb(15,15,15)" stroke="none" d="M 2878,13573 L 2825,13655 2842,13649 2878,13573 Z"/>
    <path fill="none" stroke="rgb(15,15,15)" id="Drawing_80_0" stroke-linejoin="round" d="M 2878,13573 L 2825,13655 2842,13649 2878,13573 Z"/>
   </g>
   <g>
    <path fill="rgb(15,15,15)" stroke="none" d="M 2877,13573 L 2841,13649 2856,13640 2877,13573 Z"/>
    <path fill="none" stroke="rgb(15,15,15)" id="Drawing_81_0" stroke-linejoin="round" d="M 2877,13573 L 2841,13649 2856,13640 2877,13573 Z"/>
   </g>
   <g>
    <path fill="rgb(15,15,15)" stroke="none" d="M 2877,13573 L 2856,13640 2869,13626 2877,13573 Z"/>
    <path fill="none" stroke="rgb(15,15,15)" id="Drawing_82_0" stroke-linejoin="round" d="M 2877,13573 L 2856,13640 2869,13626 2877,13573 Z"/>
   </g>
   <g>
    <path fill="rgb(15,15,15)" stroke="none" d="M 2877,13573 L 2869,13626 2877,13609 2877,13573 Z"/>
    <path fill="none" stroke="rgb(15,15,15)" id="Drawing_83_0" stroke-linejoin="round" d="M 2877,13573 L 2869,13626 2877,13609 2877,13573 Z"/>
   </g>
   <g>
    <path fill="rgb(15,15,15)" stroke="none" d="M 2877,13573 L 2877,13609 2879,13590 2877,13573 Z"/>
    <path fill="none" stroke="rgb(15,15,15)" id="Drawing_84_0" stroke-linejoin="round" d="M 2877,13573 L 2877,13609 2879,13590 2877,13573 Z"/>
   </g>
   <g>
    <path fill="none" stroke="rgb(15,15,15)" id="Drawing_85_0" stroke-linejoin="round" d="M 2814,13590 L 3113,13590"/>
   </g>
   <g>
    <path fill="none" stroke="rgb(15,15,15)" id="Drawing_86_0" stroke-linejoin="round" d="M 2097,13292 L 2814,12993"/>
   </g>
  </g>
 </g>
</svg>
