<?xml version="1.0" standalone="no"?>
<!DOCTYPE svg PUBLIC "-//W3C//DTD SVG 20010904//EN"
  "http://www.w3.org/TR/2001/REC-SVG-20010904/DTD/svg10.dtd">
<svg version="1.0" xmlns="http://www.w3.org/2000/svg"
     width="67.000000pt" height="67.000000pt" viewBox="0 0 67.000000 67.000000"
     preserveAspectRatio="xMidYMid meet">

  <g transform="translate(0.000000,67.000000) scale(0.100000,-0.100000)"
     fill="#0074D9" stroke="none">
    <path d="M122 397 l-62 -63 64 -63 c48 -47 69 -62 82 -57 15 6 10 15 -34 59
-29 29 -52 57 -52 63 0 5 22 32 50 59 46 46 54 65 27 65 -7 0 -41 -28 -75 -63z"/>
    <path d="M493 452 c-9 -6 2 -23 37 -57 28 -27 50 -54 50 -60 0 -6 -22 -33 -50
-60 -42 -41 -47 -51 -34 -58 13 -7 31 5 80 54 l64 63 -62 63 c-66 67 -66 67
-85 55z"/>


    <path fill="none" stroke="red" id="Drawing_4_0" stroke-width="25" stroke-linejoin="round" d="M 50,50 L 600,600"/>

  </g>
  <g fill="#0074D9" stroke="none" font-family="Liberation Sans embedded" font-size="10" font-style="normal" font-weight="700">
    <text x="18" y="37">header</text>
  </g>
</svg>
