<?xml version="1.0" encoding="UTF-8"?>

<svg version="1.2" baseProfile="tiny" width="16.05mm" height="10.05mm" viewBox="18755 15580 1605 1005" preserveAspectRatio="xMidYMid" fill-rule="evenodd" stroke-width="28.222" stroke-linejoin="round" xmlns="http://www.w3.org/2000/svg" xmlns:xlink="http://www.w3.org/1999/xlink" xml:space="preserve">

 <g visibility="visible" id="Slide_1">
  <g id="DrawingGroup_1">
   <g>
    <path fill="rgb(204,255,153)" stroke="none" d="M 18780,16559 L 20334,16559 20334,15605 18780,15605 18780,16559 Z"/>
   </g>
   <g>
    <path fill="none" stroke="rgb(141,141,141)" id="Drawing_2_0" stroke-linejoin="round" d="M 19348,15904 L 19825,15904"/>
   </g>
   <g>
    <path fill="rgb(141,141,141)" stroke="none" d="M 19796,15992 L 19796,15813 19977,15903 19796,15992 Z"/>
    <path fill="none" stroke="rgb(141,141,141)" id="Drawing_3_0" stroke-linejoin="round" d="M 19796,15992 L 19796,15813 19977,15903 19796,15992 Z"/>
   </g>
   <g>
    <path fill="none" stroke="rgb(141,141,141)" id="Drawing_4_0" stroke-linejoin="round" d="M 19977,15903 L 19796,15992 19796,15813 19977,15903 Z"/>
   </g>
   <g>
    <path fill="rgb(255,255,255)" stroke="none" d="M 19079,15992 L 19260,15992 19260,15813 19079,15813 19079,15992 Z"/>
    <path fill="none" stroke="rgb(15,15,15)" id="Drawing_5_0" stroke-linejoin="round" d="M 19079,15992 L 19260,15992 19260,15813 19079,15813 19079,15992 Z"/>
   </g>
   <g>
    <path fill="rgb(255,255,255)" stroke="none" d="M 19857,16411 L 20036,16411 20036,16232 19857,16232 19857,16411 Z"/>
    <path fill="none" stroke="rgb(15,15,15)" id="Drawing_6_0" stroke-linejoin="round" d="M 19857,16411 L 20036,16411 20036,16232 19857,16232 19857,16411 Z"/>
   </g>
   <g>
    <path fill="none" stroke="rgb(141,141,141)" id="Drawing_7_0" stroke-linejoin="round" d="M 19751,16320 L 19274,16320"/>
   </g>
   <g>
    <path fill="rgb(141,141,141)" stroke="none" d="M 19304,16411 L 19304,16232 19125,16320 19304,16411 Z"/>
    <path fill="none" stroke="rgb(141,141,141)" id="Drawing_8_0" stroke-linejoin="round" d="M 19304,16411 L 19304,16232 19125,16320 19304,16411 Z"/>
   </g>
   <g>
    <path fill="none" stroke="rgb(141,141,141)" id="Drawing_9_0" stroke-linejoin="round" d="M 19125,16320 L 19304,16411 19304,16232 19125,16320 Z"/>
   </g>
  </g>
 </g>
</svg>
