<?xml version="1.0" standalone="no"?>
<!DOCTYPE svg PUBLIC "-//W3C//DTD SVG 20010904//EN"
 "http://www.w3.org/TR/2001/REC-SVG-20010904/DTD/svg10.dtd">
<svg version="1.0" xmlns="http://www.w3.org/2000/svg"
 width="40.000000pt" height="40.000000pt" viewBox="0 0 40.000000 40.000000"
 preserveAspectRatio="xMidYMid meet">

<g transform="translate(0.000000,40.000000) scale(0.100000,-0.100000)"
fill="#000000" stroke="none">
<path d="M168 354 c-9 -10 -34 -20 -55 -23 -34 -6 -38 -10 -44 -44 -3 -20 -13
-45 -22 -55 -21 -23 -21 -41 0 -64 9 -10 19 -35 22 -55 6 -34 10 -38 44 -44
20 -3 45 -13 55 -22 23 -21 41 -21 64 0 10 9 35 19 55 22 34 6 38 10 44 44 3
20 13 45 22 55 21 23 21 41 0 64 -9 10 -19 35 -22 55 -6 34 -10 38 -44 44 -20
3 -45 13 -55 22 -23 21 -43 21 -64 1z m55 -8 c3 -8 25 -18 49 -23 40 -8 43
-11 51 -51 5 -24 15 -46 23 -49 18 -7 18 -39 0 -46 -8 -3 -18 -25 -23 -49 -8
-40 -11 -43 -51 -51 -24 -5 -46 -15 -49 -23 -7 -18 -39 -18 -46 0 -3 8 -25 18
-49 23 -40 8 -43 11 -51 51 -5 24 -15 46 -23 49 -18 7 -18 39 0 46 8 3 18 25
23 49 8 40 11 43 51 51 24 5 46 15 49 23 3 8 13 14 23 14 10 0 20 -6 23 -14z"/>
<path d="M131 205 c-6 -21 -8 -41 -6 -44 3 -2 5 1 5 7 0 16 27 15 34 0 3 -7 3
1 -1 17 -11 56 -20 62 -32 20z"/>
<path d="M187 234 c-9 -10 -9 -64 1 -64 18 1 43 30 40 47 -3 18 -29 29 -41 17z
m33 -18 c0 -8 -4 -18 -10 -21 -5 -3 -10 3 -10 14 0 12 5 21 10 21 6 0 10 -6
10 -14z"/>
<path d="M250 200 c0 -22 5 -40 10 -40 6 0 10 18 10 40 0 22 -4 40 -10 40 -5
0 -10 -18 -10 -40z"/>
</g>
</svg>
