<?xml version="1.0" standalone="no"?>
<!DOCTYPE svg PUBLIC "-//W3C//DTD SVG 20010904//EN"
 "http://www.w3.org/TR/2001/REC-SVG-20010904/DTD/svg10.dtd">
<svg version="1.0" xmlns="http://www.w3.org/2000/svg"
 width="80.000000pt" height="80.000000pt" viewBox="0 0 80.000000 80.000000"
 preserveAspectRatio="xMidYMid meet">

<g transform="translate(0.000000,80.000000) scale(0.100000,-0.100000)"
fill="#0074D9" stroke="none">
<path d="M346 718 c-8 -31 -103 -69 -135 -54 -18 8 -27 4 -53 -22 -26 -26 -30
-35 -22 -53 15 -32 -23 -127 -53 -135 -20 -5 -23 -13 -23 -54 0 -41 3 -49 22
-54 31 -8 69 -103 54 -135 -8 -18 -4 -27 22 -53 26 -26 35 -30 53 -22 32 15
127 -23 135 -54 5 -19 13 -22 54 -22 41 0 49 3 54 23 8 30 103 68 135 53 18
-8 27 -4 53 22 26 26 30 35 22 53 -15 32 23 127 54 135 19 5 22 13 22 54 0 41
-3 49 -22 54 -31 8 -69 103 -54 135 8 18 4 27 -22 53 -26 26 -35 30 -53 22
-32 -15 -127 23 -135 54 -5 19 -13 22 -54 22 -41 0 -49 -3 -54 -22z m94 -23
c5 -14 17 -25 28 -25 10 0 35 -9 56 -19 26 -14 44 -17 59 -11 32 12 69 -24 57
-55 -6 -17 -3 -34 11 -61 10 -21 19 -46 19 -56 0 -11 11 -23 25 -28 19 -7 25
-17 25 -40 0 -23 -6 -33 -25 -40 -14 -5 -25 -17 -25 -25 0 -9 -9 -34 -19 -56
-14 -28 -17 -47 -11 -62 12 -32 -24 -69 -55 -57 -17 6 -35 3 -64 -11 -22 -10
-47 -19 -56 -19 -8 0 -20 -11 -25 -25 -14 -36 -66 -36 -80 0 -5 14 -17 25 -28
25 -10 0 -35 9 -56 19 -27 14 -44 17 -61 11 -31 -12 -67 25 -55 57 6 15 3 33
-11 59 -10 21 -19 46 -19 56 0 11 -11 23 -25 28 -19 7 -25 17 -25 40 0 23 6
33 25 40 14 5 25 17 25 28 0 10 9 35 19 56 14 26 17 44 11 59 -12 32 24 69 55
57 17 -6 34 -3 61 11 21 10 46 19 56 19 11 0 23 11 28 25 7 19 17 25 40 25 23
0 33 -6 40 -25z"/>
<path d="M390 690 c0 -5 5 -10 10 -10 6 0 10 5 10 10 0 6 -4 10 -10 10 -5 0
-10 -4 -10 -10z"/>
<path d="M390 630 c0 -5 5 -10 10 -10 6 0 10 5 10 10 0 6 -4 10 -10 10 -5 0
-10 -4 -10 -10z"/>
<path d="M305 610 c3 -5 8 -10 11 -10 2 0 4 5 4 10 0 6 -5 10 -11 10 -5 0 -7
-4 -4 -10z"/>
<path d="M480 609 c0 -5 5 -7 10 -4 6 3 10 8 10 11 0 2 -4 4 -10 4 -5 0 -10
-5 -10 -11z"/>
<path d="M265 590 c3 -5 8 -10 11 -10 2 0 4 5 4 10 0 6 -5 10 -11 10 -5 0 -7
-4 -4 -10z"/>
<path d="M520 589 c0 -5 5 -7 10 -4 6 3 10 8 10 11 0 2 -4 4 -10 4 -5 0 -10
-5 -10 -11z"/>
<path d="M230 559 c0 -5 5 -7 10 -4 6 3 10 8 10 11 0 2 -4 4 -10 4 -5 0 -10
-5 -10 -11z"/>
<path d="M555 560 c3 -5 8 -10 11 -10 2 0 4 5 4 10 0 6 -5 10 -11 10 -5 0 -7
-4 -4 -10z"/>
<path d="M200 530 c0 -5 5 -10 11 -10 5 0 7 5 4 10 -3 6 -8 10 -11 10 -2 0 -4
-4 -4 -10z"/>
<path d="M585 530 c-3 -5 -1 -10 4 -10 6 0 11 5 11 10 0 6 -2 10 -4 10 -3 0
-8 -4 -11 -10z"/>
<path d="M180 490 c0 -5 5 -10 11 -10 5 0 7 5 4 10 -3 6 -8 10 -11 10 -2 0 -4
-4 -4 -10z"/>
<path d="M605 490 c-3 -5 -1 -10 4 -10 6 0 11 5 11 10 0 6 -2 10 -4 10 -3 0
-8 -4 -11 -10z"/>

<path d="M100 400 c0 -5 5 -10 10 -10 6 0 10 5 10 10 0 6 -4 10 -10 10 -5 0
-10 -4 -10 -10z"/>
<path d="M160 400 c0 -5 5 -10 10 -10 6 0 10 5 10 10 0 6 -4 10 -10 10 -5 0
-10 -4 -10 -10z"/>
<path d="M620 400 c0 -5 5 -10 10 -10 6 0 10 5 10 10 0 6 -4 10 -10 10 -5 0
-10 -4 -10 -10z"/>
<path d="M680 400 c0 -5 5 -10 10 -10 6 0 10 5 10 10 0 6 -4 10 -10 10 -5 0
-10 -4 -10 -10z"/>
<path d="M180 309 c0 -5 5 -7 10 -4 6 3 10 8 10 11 0 2 -4 4 -10 4 -5 0 -10
-5 -10 -11z"/>
<path d="M605 310 c3 -5 8 -10 11 -10 2 0 4 5 4 10 0 6 -5 10 -11 10 -5 0 -7
-4 -4 -10z"/>
<path d="M200 269 c0 -5 5 -7 10 -4 6 3 10 8 10 11 0 2 -4 4 -10 4 -5 0 -10
-5 -10 -11z"/>
<path d="M585 270 c3 -5 8 -10 11 -10 2 0 4 5 4 10 0 6 -5 10 -11 10 -5 0 -7
-4 -4 -10z"/>
<path d="M230 240 c0 -5 5 -10 11 -10 5 0 7 5 4 10 -3 6 -8 10 -11 10 -2 0 -4
-4 -4 -10z"/>
<path d="M555 240 c-3 -5 -1 -10 4 -10 6 0 11 5 11 10 0 6 -2 10 -4 10 -3 0
-8 -4 -11 -10z"/>
<path d="M265 210 c-3 -5 -1 -10 4 -10 6 0 11 5 11 10 0 6 -2 10 -4 10 -3 0
-8 -4 -11 -10z"/>
<path d="M520 210 c0 -5 5 -10 11 -10 5 0 7 5 4 10 -3 6 -8 10 -11 10 -2 0 -4
-4 -4 -10z"/>
<path d="M305 190 c-3 -5 -1 -10 4 -10 6 0 11 5 11 10 0 6 -2 10 -4 10 -3 0
-8 -4 -11 -10z"/>
<path d="M480 190 c0 -5 5 -10 11 -10 5 0 7 5 4 10 -3 6 -8 10 -11 10 -2 0 -4
-4 -4 -10z"/>
<path d="M390 170 c0 -5 5 -10 10 -10 6 0 10 5 10 10 0 6 -4 10 -10 10 -5 0
-10 -4 -10 -10z"/>
<path d="M390 110 c0 -5 5 -10 10 -10 6 0 10 5 10 10 0 6 -4 10 -10 10 -5 0
-10 -4 -10 -10z"/>
</g>
  <g  stroke="none" font-family="Liberation Sans embedded" font-size="10" font-style="normal" font-weight="500">
    <text x="18" y="45">REST API</text>
  </g>
</svg>
